<svg id="Layer_1" data-name="Layer 1" xmlns="http://www.w3.org/2000/svg" xmlns:xlink="http://www.w3.org/1999/xlink" viewBox="0 0 221.6 248.84"><defs><style>.cls-1{stroke:#d9ea98;stroke-miterlimit:10;stroke-width:5px;fill:url(#linear-gradient);}.cls-2{fill:#2d1814;}.cls-3{fill:#2b7c09;}.cls-4{fill:url(#linear-gradient-2);}.cls-5{fill:#54a814;}.cls-6{fill:url(#linear-gradient-3);}.cls-7{fill:#452b25;}.cls-8{fill:#5b3e31;}.cls-9{fill:#1d0f0e;}.cls-10{fill:#5b3d34;}.cls-11{fill:#775a4e;}.cls-12{fill:#5b3e32;}.cls-13{fill:#291410;}.cls-14{fill:#6a4c43;}.cls-15{fill:#1e0a09;}.cls-16{fill:#512d28;}.cls-17{fill:#76574c;}.cls-18{fill:#5a3b32;}.cls-19{fill:#563a32;}.cls-20{fill:#76594d;}.cls-21{fill:#3b8e14;}.cls-22{fill:#25600a;}.cls-23{fill:url(#linear-gradient-4);}.cls-24{fill:#94cb66;}.cls-25{fill:#a4d179;}.cls-26{fill:url(#linear-gradient-5);}.cls-27{fill:url(#linear-gradient-6);}.cls-28{fill:url(#linear-gradient-7);}.cls-29{fill:#1b0f11;}.cls-30{fill:url(#linear-gradient-8);}.cls-31{fill:url(#linear-gradient-9);}.cls-32{fill:#214f08;}.cls-33{fill:url(#linear-gradient-10);}.cls-34{fill:url(#linear-gradient-11);}.cls-35{fill:url(#linear-gradient-12);}.cls-36{fill:url(#linear-gradient-13);}.cls-37{fill:url(#linear-gradient-14);}.cls-38{fill:url(#linear-gradient-15);}.cls-39{fill:url(#linear-gradient-16);}.cls-40{fill:#a3d775;}.cls-41{fill:#c4e795;}.cls-42{fill:#ecfad7;}.cls-43{fill:url(#linear-gradient-17);}.cls-44{fill:url(#linear-gradient-18);}.cls-45{fill:url(#linear-gradient-19);}.cls-46{fill:url(#linear-gradient-20);}.cls-47,.cls-53,.cls-55{fill:#d6ecf2;}.cls-47,.cls-48{opacity:0.82;}.cls-48,.cls-49,.cls-50,.cls-51,.cls-52,.cls-54{fill:#c9e9f2;}.cls-49{opacity:0.68;}.cls-50,.cls-53{opacity:0.57;}.cls-51{opacity:0.94;}.cls-52{opacity:0.49;}.cls-54,.cls-55{opacity:0.99;}.cls-56{fill:#fff;}</style><linearGradient id="linear-gradient" x1="110.8" y1="246.34" x2="110.8" y2="2.5" gradientUnits="userSpaceOnUse"><stop offset="0" stop-color="#55b966"/><stop offset="0.6" stop-color="#b4d45a"/></linearGradient><linearGradient id="linear-gradient-2" x1="92.97" y1="79.15" x2="125.83" y2="79.15" gradientUnits="userSpaceOnUse"><stop offset="0" stop-color="#7ec646"/><stop offset="0.16" stop-color="#78c340"/><stop offset="0.36" stop-color="#60b729"/><stop offset="0.52" stop-color="#2d9800"/><stop offset="0.91" stop-color="#36660c"/></linearGradient><linearGradient id="linear-gradient-3" x1="80.97" y1="88.12" x2="87.33" y2="88.12" gradientTransform="translate(67.42 -46.36) rotate(24.07)" gradientUnits="userSpaceOnUse"><stop offset="0" stop-color="#5c9104"/><stop offset="0" stop-color="#8fc451"/><stop offset="0.86" stop-color="#cff98c"/></linearGradient><linearGradient id="linear-gradient-4" x1="65.45" y1="146.99" x2="92.88" y2="146.99" xlink:href="#linear-gradient-2"/><linearGradient id="linear-gradient-5" x1="135.79" y1="143.04" x2="128.92" y2="147.01" gradientUnits="userSpaceOnUse"><stop offset="0" stop-color="#d1f998"/><stop offset="0.19" stop-color="#cef694"/><stop offset="0.65" stop-color="#a6cf64"/><stop offset="1" stop-color="#a6cf64"/></linearGradient><linearGradient id="linear-gradient-6" x1="106.24" y1="162.48" x2="137.3" y2="162.48" gradientUnits="userSpaceOnUse"><stop offset="0" stop-color="#1b0f11"/><stop offset="0.06" stop-color="#5d4804"/><stop offset="0.16" stop-color="#5c7804"/><stop offset="0.44" stop-color="#5c9104"/><stop offset="0.7" stop-color="#9bd064"/></linearGradient><linearGradient id="linear-gradient-7" x1="46.62" y1="107.17" x2="91.28" y2="107.17" xlink:href="#linear-gradient-2"/><linearGradient id="linear-gradient-8" x1="91.06" y1="121.98" x2="88.45" y2="99.95" gradientTransform="matrix(-0.92, -0.39, -0.39, 0.92, 272.71, 46.6)" xlink:href="#linear-gradient-2"/><linearGradient id="linear-gradient-9" x1="84.18" y1="160.85" x2="98.09" y2="160.85" xlink:href="#linear-gradient-5"/><linearGradient id="linear-gradient-10" x1="61.8" y1="97.62" x2="68.37" y2="97.62" gradientUnits="userSpaceOnUse"><stop offset="0" stop-color="#5d4404"/><stop offset="0.38" stop-color="#5c9104"/><stop offset="0.69" stop-color="#8fc451"/><stop offset="0.86" stop-color="#9bd064"/></linearGradient><linearGradient id="linear-gradient-11" x1="104.55" y1="110.68" x2="108.98" y2="110.68" gradientTransform="matrix(-0.94, -0.34, -0.34, 0.94, 289.97, 41.65)" xlink:href="#linear-gradient-3"/><linearGradient id="linear-gradient-12" x1="158.57" y1="51.66" x2="158.57" y2="85.62" xlink:href="#linear-gradient-2"/><linearGradient id="linear-gradient-13" x1="76.65" y1="170.78" x2="76.65" y2="95.56" gradientUnits="userSpaceOnUse"><stop offset="0" stop-color="#5d4404"/><stop offset="0.51" stop-color="#5c9104"/><stop offset="0.74" stop-color="#8fc451"/><stop offset="0.97" stop-color="#9bd064"/></linearGradient><linearGradient id="linear-gradient-14" x1="159.81" y1="57.42" x2="167.9" y2="57.42" gradientUnits="userSpaceOnUse"><stop offset="0" stop-color="#b8e088"/><stop offset="1" stop-color="#aad979"/></linearGradient><linearGradient id="linear-gradient-15" x1="112.26" y1="126.39" x2="163.42" y2="126.39" gradientUnits="userSpaceOnUse"><stop offset="0" stop-color="#452b25"/><stop offset="0.12" stop-color="#5c9104"/><stop offset="0.42" stop-color="#8fc451"/><stop offset="0.69" stop-color="#94c856"/><stop offset="0.86" stop-color="#cff98c"/></linearGradient><linearGradient id="linear-gradient-16" x1="81.83" y1="167.59" x2="91.66" y2="150.56" gradientUnits="userSpaceOnUse"><stop offset="0.06" stop-color="#1b0f11"/><stop offset="0.21" stop-color="#5d4804"/><stop offset="0.33" stop-color="#5d4404"/><stop offset="0.79" stop-color="#5c9104"/><stop offset="0.89" stop-color="#8fc451"/><stop offset="1" stop-color="#cff973"/></linearGradient><linearGradient id="linear-gradient-17" x1="144.87" y1="180.7" x2="144.87" y2="56.04" gradientUnits="userSpaceOnUse"><stop offset="0" stop-color="#1b0f11"/><stop offset="0.09" stop-color="#5d4804"/><stop offset="0.25" stop-color="#5d4404"/><stop offset="0.63" stop-color="#5c9104"/><stop offset="0.85" stop-color="#8fc451"/><stop offset="1" stop-color="#9bd064"/></linearGradient><linearGradient id="linear-gradient-18" x1="79.55" y1="132.01" x2="106.37" y2="132.01" gradientTransform="matrix(-0.8, -0.6, -0.6, 0.8, 288.44, 81.58)" gradientUnits="userSpaceOnUse"><stop offset="0" stop-color="#b8e088"/><stop offset="0.39" stop-color="#8dcc5a"/><stop offset="0.73" stop-color="#63b92c"/><stop offset="0.92" stop-color="#2d9800"/></linearGradient><linearGradient id="linear-gradient-19" x1="107.5" y1="103.37" x2="107.5" y2="59.36" gradientUnits="userSpaceOnUse"><stop offset="0" stop-color="#5c9104"/><stop offset="0.42" stop-color="#8fc451"/><stop offset="0.86" stop-color="#cff98c"/></linearGradient><linearGradient id="linear-gradient-20" x1="115.31" y1="130.36" x2="149.97" y2="130.36" gradientUnits="userSpaceOnUse"><stop offset="0" stop-color="#5c9104"/><stop offset="0.08" stop-color="#7eb337"/><stop offset="0.42" stop-color="#9bd064"/><stop offset="0.77" stop-color="#d9f9a5"/></linearGradient></defs><title>carbon</title><rect class="cls-1" x="2.5" y="2.5" width="216.6" height="243.84"/><path class="cls-2" d="M216.53,235.72V244H5v-8.13c1.18-4.15,3.09-6.13,4.67-7.17,1.86-1.23,2.44-.61,6.5-2.5,3.29-1.54,4-2.46,5.83-2.33,2.26,0.15,4,1.73,4.33,1.33,0.2-.25-0.6-0.78-0.66-1.67-0.15-2,3.65-3.84,4.33-4.16,2.79-1.34,3.48-.69,5.83-1.67,3.76-1.56,2.8-3.55,6.34-5.17a23,23,0,0,1,9.33-1.83,3.15,3.15,0,0,0,2.33-.5,3.5,3.5,0,0,0,.84-1.33,11.19,11.19,0,0,1,1.83-2.5c1.15-1.18,2-1.1,5-3a4.47,4.47,0,0,0,1-.84,5.35,5.35,0,0,0,1-2.33c0.77-2.23,4.42-4,7.17-4a2.42,2.42,0,0,0,1.66-.33c0.8-.63.42-1.64,0.84-2.67,0.68-1.69,3-2.27,6-3s3.51-.3,5.16-1.17c1.3-.67,1.34-1.12,3.5-3a28.59,28.59,0,0,1,5-3.66,18.12,18.12,0,0,1,6.17-2h15c5.36,0.87,7.09,2.41,7.5,3.83,0.36,1.26-.25,2.62.67,3.5,0.69,0.66,1.5.32,3,.5,2.33,0.28,5.1,1.69,6.16,3.83,0.93,1.86.42,4,.84,4s0.36-.87,1-1.5c1.35-1.31,4.21-.41,5-0.16a13.28,13.28,0,0,1,7.66,6.66c0.92,1.86.72,2.64,1.84,3.67s2.08,1.1,5.5,1.67c6.2,1,6.94,1.28,7.83,1.83a7.35,7.35,0,0,1,3.5,4c0.39,1.38-.08,2,0.5,2.67,0.87,1,2.46.06,4.55,0a6.26,6.26,0,0,1,1.4.12h0a4.09,4.09,0,0,1,1.74.75,20.75,20.75,0,0,0,2.53,2.28,7.48,7.48,0,0,0,.9.47c3.73,1.66,5.79-.69,9.83.67,2.57,0.86,2.58,2.1,5.33,4,5.58,3.86,9.67,1.67,15.67,4.17C209.58,228.45,213.13,230.63,216.53,235.72Z"/><path class="cls-3" d="M92.73,60.18c2.28,0.16,20.5,1.74,28.68,15.46,1.55,2.6,6.3,10.57,3.41,19.06a18.25,18.25,0,0,1-3.4,5.92,37.35,37.35,0,0,1-13.82-9.82,31.85,31.85,0,0,1-6.06-9.69A49.23,49.23,0,0,1,99,71.47c-0.53-3.79-.29-5.9-1.94-8.13A9.64,9.64,0,0,0,92.73,60.18Z"/><path class="cls-4" d="M93,59.36c4.77,0.25,15.18,1.48,23.33,8.84a29,29,0,0,1,5.23,6.24c1.4,2.27,6.11,9.89,3.55,18.28a18.31,18.31,0,0,1-3.36,6.21A35.62,35.62,0,0,1,108,89.43a37.65,37.65,0,0,1-6.25-10.29,48.13,48.13,0,0,1-2.53-9.66h0c-0.54-3.14-.64-5.23-2.32-7.29A9.79,9.79,0,0,0,93,59.36Z"/><path class="cls-5" d="M121,80.4a20.6,20.6,0,0,1-.84,7.39c-0.16.51-.33,1-0.51,1.47a34.18,34.18,0,0,1-3.95-2.58A33.83,33.83,0,0,1,110.67,82a56.36,56.36,0,0,0,5.26,4.25c1.2,0.86,2.38,1.62,3.51,2.31,0.28-.79.55-1.64,0.78-2.57A27.58,27.58,0,0,0,121,80.4Z"/><path class="cls-5" d="M116.73,73.2a14.92,14.92,0,0,1-.61,5.35c-0.11.37-.24,0.72-0.37,1.06a24.75,24.75,0,0,1-2.86-1.87,24.5,24.5,0,0,1-3.66-3.41A40.82,40.82,0,0,0,113,77.42c0.87,0.62,1.72,1.18,2.54,1.67,0.2-.57.4-1.19,0.56-1.86A20,20,0,0,0,116.73,73.2Z"/><path class="cls-6" d="M110.37,66.84a11.34,11.34,0,0,1,.09,4.1c0,0.29-.11.57-0.17,0.84a18.91,18.91,0,0,1-5.47-3.34,31.4,31.4,0,0,0,3.2,1.95c0.72,0.38,1.42.72,2.09,1,0.1-.45.18-0.94,0.24-1.46A15.17,15.17,0,0,0,110.37,66.84Z"/><path class="cls-7" d="M99,180.39a9,9,0,0,0-1.42,1.08,10.29,10.29,0,0,0-1.16,1.33c-2.32,3.09-2.4,3.13-2.5,3.5-0.45,1.57.48,2,0,3-0.63,1.31-2.69,1.57-6.09,2-2.46.32-3.31,0.17-5,.84a9.09,9.09,0,0,0-2.66,1.58c-1.47,1.28-2.74,3.3-2.25,3.92s3-.12,4.08.41a0.43,0.43,0,0,1,.25.25c0.06,0.36-.87.78-1.17,0.92-2.68,1.26-3.32,2.75-5.08,3-2.43.35-3.2-2.21-6-2.75-1.57-.3-4,0-7.5,3.08a5.35,5.35,0,0,0,1-2.33c0.77-2.23,4.42-4,7.17-4a2.42,2.42,0,0,0,1.66-.33c0.8-.63.42-1.64,0.84-2.67,0.68-1.69,3-2.27,6-3s3.51-.3,5.16-1.17c1.3-.67,1.34-1.12,3.5-3a28.59,28.59,0,0,1,5-3.66A18.12,18.12,0,0,1,99,180.39Z"/><path class="cls-8" d="M88.61,188.39c0.35,0.43,1.82-.12,2.73-0.79,1.19-.87,2.07-2.4,1.69-2.87s-1.38,0-1.58.08C89.48,185.53,88.16,187.84,88.61,188.39Z"/><path class="cls-8" d="M74.36,194.39a1.53,1.53,0,0,0,1.54,0c1.15-.47,1.85-1.87,1.54-2.25s-1.13,0-1.54.25C74.92,192.89,74.11,194,74.36,194.39Z"/><path class="cls-9" d="M67.09,202.91a7.29,7.29,0,0,1,3,.63,1.31,1.31,0,0,1,.81.69,1.79,1.79,0,0,1-.62,1.5c-0.67.7-1.15,0.56-2.06,1.13s-0.8.92-2,2.06A6.18,6.18,0,0,1,64,210.54c-1.2.41-1.47-.25-4.12-0.25-0.73,0-1.18,0-2.25,0-1.42-.06-2.13-0.1-2.25-0.44-0.21-.59,1.52-1.68,1.63-1.75a6.73,6.73,0,0,1,1.88-.81C60,207,62.3,206,67.09,202.91Z"/><path class="cls-10" d="M58.84,205.24a3.82,3.82,0,0,0,.63,2.92,2.89,2.89,0,0,0,1.88,1.25c0.74,0.08,1.45-.4,2.88-1.37a5.42,5.42,0,0,0,1.44-1.19A3.35,3.35,0,0,1,66.4,206c0.38-.29.54-0.23,0.81-0.44a2.23,2.23,0,0,0,.63-1.87,2.62,2.62,0,0,0-2.48-1.9,6.33,6.33,0,0,0-3.52.52A6.4,6.4,0,0,0,58.84,205.24Z"/><path class="cls-11" d="M61.15,202.18A2.68,2.68,0,0,0,60,203c-1,1.18-1.43,2.24-1.08,2.72s0.92,0.34,1.88.31a9.42,9.42,0,0,0,2.06-.29,2.5,2.5,0,0,0,.81-0.36c1.46-1,1.77-1.55,1.85-1.82l0.1-.37c0.06-.22.09-0.34,0.12-0.41,0.15-.44.46-0.52,0.45-0.67,0-.33-1.55-0.55-3-0.43A5.94,5.94,0,0,0,61.15,202.18Z"/><path class="cls-7" d="M115.48,180.67c2.66,1.71,3,3.13,3,3.93,0,3.18-5.8,6.51-10.87,7.63-4.26.93-9.9,0.72-11.5,3.25-0.25.4-.5,0.87-0.5,0.88-1.37,2.63-.85,3.72-1.62,4.5-1.32,1.32-3.67-1-6,.25-1.93,1-1.18,3-3.37,4.5-1.41.93-3,1-5.5,1s-3.22-.43-4.75.13-3.06,1.77-2.87,2.75c0.14,0.76,1.29,1.12,2.88,1.63,2.78,0.88,3.43.34,5,1.13s1,1.29,3.25,3c1.4,1.07,3,2.21,4.75,2,1.17-.14,1.25-0.71,2.13-0.75,2.2-.11,2.81,3.42,5.38,5.13,3.29,2.19,5.59-1.4,12.75-.5,4.57,0.57,5.84,2.31,9.5,1.5a41.15,41.15,0,0,0,5.13-1.75,40.81,40.81,0,0,0,4.25-1.87c2.4-1.23,3.61-1.87,4.12-3,0.35-.75.4-1.54,1-1.75a1.9,1.9,0,0,1,1.5.5,7.76,7.76,0,0,0,6.75.5c1.24-.55,2.44-1.72,2.25-2.5s-1.51-.77-1.75-1.75c-0.16-.65.36-0.9,0.25-1.37-0.29-1.2-3.86-.77-7.5-2.12a14.15,14.15,0,0,1-3.5-1.91,20.46,20.46,0,0,0,4.38.29c2.67-.12,3.78-0.72,6-0.25,1.39,0.29,1.27.59,2.5,0.75,2.08,0.27,4.73-.3,5.13-1.62a2.23,2.23,0,0,0-.5-1.75c-2.09-3.3-3.55-5.59-7-7.37-2-1.05-4.71-2.43-6.5-1.25a3.24,3.24,0,0,0-1.37,3.5,3.33,3.33,0,0,0,1.88,1.5,7.61,7.61,0,0,0,3,.75,14.54,14.54,0,0,1-4.62-.12c-1.76-.34-2.56-0.86-4.12-0.62-0.68.1-2.17,0.32-2.75,1.5a2.73,2.73,0,0,0,0,2.06,8.38,8.38,0,0,0-10.29-.5q5.66-3.42,5.19-4.94-0.22-.7-1.75-1a11.28,11.28,0,0,1,1.44,0c2.06,0.13,2.72.75,3.94,0.88,2.57,0.27,4.68-2,4.81-2.12a6.71,6.71,0,0,0,1.69-4.06,10.13,10.13,0,0,0-1-.94,10.26,10.26,0,0,0-3.12-1.75c-2.35-.8-3.16,0-4.06-0.81s-0.44-1.87-.87-3.12S119.7,181.67,115.48,180.67Z"/><path class="cls-12" d="M128.78,192.72a1.92,1.92,0,0,1-.5,1.13c-1.14,1.47-3.5,1.39-4.87,1a7,7,0,0,1-2-1c-1.16-.75-2-1.3-2.06-2-0.06-1.08,1.88-2.3,3.69-2.5C125.76,189,128.83,191,128.78,192.72Z"/><path class="cls-12" d="M112.84,198.16a1.17,1.17,0,0,1-.56.88c-1.15,1.07-3.29,1.62-4,.75a1.66,1.66,0,0,1,.06-1.87C109.36,196.49,112.66,197.29,112.84,198.16Z"/><path class="cls-12" d="M102.71,202c-1.11-1.25-3.21-.7-3.75-0.56a5.2,5.2,0,0,0-3.77,3.6c-0.25,1-.27,2.83.71,3.47,0.61,0.4,1.52.21,3.33-.17a6.08,6.08,0,0,0,1.42-.4,4.56,4.56,0,0,0,2.19-2.19C102.95,205.48,103.89,203.3,102.71,202Z"/><path class="cls-12" d="M80.46,207.91c0.06,0.72-1.47,1.65-2.87,1.56-1.09-.07-2.34-0.76-2.31-1.44s1.35-1.17,2.31-1.25C78.85,206.68,80.41,207.22,80.46,207.91Z"/><path class="cls-12" d="M101.28,212.72a2.64,2.64,0,0,1-.44,2.5,3,3,0,0,1-2.44.75c-0.84,0-1-.3-2.87-1-0.49-.18-1.24-0.43-2.75-0.94-2.15-.72-2.6-0.83-2.69-1.19-0.14-.63,1-1.46,1.75-1.87C95.11,209.19,100.42,210.26,101.28,212.72Z"/><path class="cls-12" d="M92.09,202.16c-0.29-.26-0.75-0.17-1.56,0a4,4,0,0,0-1.44.5,4.38,4.38,0,0,0-1,.94,4.71,4.71,0,0,0-.94,1.31c0,0.09-.53,1.24-0.19,1.5s0.7-.28,1.94-0.69c0.77-.25.74-0.12,1.25-0.31a3.43,3.43,0,0,0,2.13-2.12A1.29,1.29,0,0,0,92.09,202.16Z"/><path class="cls-13" d="M107.43,210.72a1.39,1.39,0,0,1-.81.81,3.47,3.47,0,0,1-2.16.81,3.66,3.66,0,0,1-1.94-1c-1-.74-1.47-1.12-1.44-1.59,0.05-.76,1.47-1.4,2.63-1.37a4.45,4.45,0,0,1,2.38,1C106.76,209.74,107.49,210.2,107.43,210.72Z"/><path class="cls-13" d="M111.12,212.82c0,0.23-.44.32-1.22,0.5a2,2,0,0,1-1.47,0,1,1,0,0,1-.56-0.73,1.47,1.47,0,0,1,1.47-.86C110.28,211.73,111.2,212.43,111.12,212.82Z"/><path class="cls-14" d="M141.09,197.41c-0.09.49-1.3,0.64-2.19,0.75s-3.14.39-4.19-.87a1.7,1.7,0,0,1-.44-1.69c0.37-.61,1.65-0.43,2.44-0.31C138.8,195.59,141.22,196.68,141.09,197.41Z"/><path class="cls-14" d="M140.84,213.41c0,0.64-2,1.34-3.81,1.13-1.17-.14-2.47-0.69-2.44-1.12,0-.27.54-0.42,1.44-0.69a5.75,5.75,0,0,1,2.88-.37C139.59,212.48,140.85,212.9,140.84,213.41Z"/><path class="cls-15" d="M103.73,221.8a4.36,4.36,0,0,0-1.07.2,2.74,2.74,0,0,0-1.19.63,1.75,1.75,0,0,0-.41,1.88c0.43,0.7,1.54,0,3.19.63s1.82,1.86,3.09,1.91c1,0,1-.77,2.88-1.34a16,16,0,0,0,2.78-.81c1-.47,1.14-0.73,1.16-0.84,0.16-.85-2-1.85-2.2-1.92C107.74,221.85,104.63,221.75,103.73,221.8Z"/><path class="cls-16" d="M103.84,221.54a2.33,2.33,0,0,0-.19,1.88c0.55,1.25,2.63,1.27,3.72,1.28,0.55,0,3.93,0,4.5-1.66a2.09,2.09,0,0,0-.16-1.5h-7.87Z"/><path class="cls-14" d="M127.78,208.56a1.94,1.94,0,0,1,.25,1.35c-0.41,1.28-3.19,1.36-3.94,1.38-1,0-3.68.1-4.12-1.12-0.3-.84.59-1.88,1.13-2.5a3.94,3.94,0,0,1,2.63-1.62,3.84,3.84,0,0,1,2.31.75A4,4,0,0,1,127.78,208.56Z"/><path class="cls-17" d="M111.71,221.54a1.07,1.07,0,0,1,0,.41c-0.33,1.16-2.76,1.66-4.62,1.38-1-.15-3.14-0.72-3.22-1.78s1.42-1.82,2.56-2.09a4.74,4.74,0,0,1,2.5.16C109.35,219.72,111.57,220.3,111.71,221.54Z"/><path class="cls-18" d="M35.78,217.68a3.2,3.2,0,0,0,.59,1.79c0.2,0.26.9,1.09,4.22,1.41a39.65,39.65,0,0,0,5.22,0,26,26,0,0,0,3.25-.22c1.15-.24,4.27-0.89,4.59-2.69,0.21-1.18-.83-2.55-2.33-3.51A14,14,0,0,1,45,218.29,14.18,14.18,0,0,1,35.78,217.68Z"/><path class="cls-19" d="M45.41,222.43a2.2,2.2,0,0,0-.48.23,1.8,1.8,0,0,0-.87,1.19,1.67,1.67,0,0,0,1.09,1.06,5.79,5.79,0,0,0,4.16.16c0.87-.25,2.17-0.61,2.25-1.37a1.49,1.49,0,0,0-.68-1.14Z"/><path class="cls-20" d="M51.69,216.06a1.81,1.81,0,0,1-.83.79c-1.11.73-1.11,0.88-1.67,1.21a14.86,14.86,0,0,1-6.75,1.71c-2.12,0-6.37-.49-6.67-2.08-0.17-.93,1-2.12,1.25-2.33,0.62-.61.73-0.36,1.71-1.21a3.75,3.75,0,0,1,1.58-1c0.2-.05.2,0,0.46-0.08a6,6,0,0,0,1.79-.75,5.4,5.4,0,0,1,2.21-.54c1.29-.11,2.28.33,4.25,1.21,1.78,0.8,2.29,1.31,2.54,1.88A1.6,1.6,0,0,1,51.69,216.06Z"/><path class="cls-20" d="M51,222.88a0.75,0.75,0,0,1-.31.5c-1.08,1-2.91.75-3.75,0.63-1.06-.16-1.94-0.29-2-0.72-0.13-.61,1.37-1.7,2.91-1.81S51,222.19,51,222.88Z"/><path class="cls-7" d="M204.2,240.84c-0.43,1.46-3.34,2.08-5.63,1.79-1.35-.17-1.22-0.5-2.75-0.82-2.43-.52-3.65.14-6.59,0.27a22.42,22.42,0,0,1-4.8-.31,15.61,15.61,0,0,0,3.84,2.1L188.7,244H121.91a7.47,7.47,0,0,1,1.82-1c1.68-.61,2.41-0.09,5.22-0.14s4.49-.07,6-1.09c2.41-1.61,1.58-3.84,3.71-5,2.55-1.33,5.14,1.17,6.59-.27,0.85-.86.27-2,1.78-5,0,0,.28-0.52.55-1,1.76-2.78,7.95-2.54,12.64-3.57,5.92-1.3,12.14-5.23,11.94-8.38-0.05-.83-0.59-2.15-3.42-3.64a7.21,7.21,0,0,1,4,.71,5.68,5.68,0,0,1,2.53,2.28,4.36,4.36,0,0,1,.27.59c0.48,1.37,0,2.55,1,3.43s1.88,0,4.46.89a11.54,11.54,0,0,1,3.44,1.92,13.06,13.06,0,0,1,1.09,1,7.32,7.32,0,0,1-1.85,4.47c-0.15.16-2.46,2.62-5.29,2.33-1.33-.14-2-0.81-4.32-1a13.58,13.58,0,0,0-1.58,0c1.12,0.22,1.76.58,1.92,1.1,0.33,1-1.31,2.69-4.91,4.93a9.22,9.22,0,0,1,10.51,1,3,3,0,0,1,0-2.26c0.63-1.3,2.28-1.54,3-1.65,1.72-.26,2.6.31,4.53,0.69a16.2,16.2,0,0,0,5.09.13,8.27,8.27,0,0,1-3.3-.82,3.65,3.65,0,0,1-2.06-1.65,3.56,3.56,0,0,1,1.51-3.84c2-1.3,4.9.21,7.14,1.37,3.79,2,5.39,4.48,7.69,8.1A2.41,2.41,0,0,1,204.2,240.84Z"/><path class="cls-12" d="M193.71,239.07a1.17,1.17,0,0,1,.66-0.81c1.26-.94,3.45-1.25,4.06-0.31a1.66,1.66,0,0,1-.27,1.86C197,241.1,193.79,239.95,193.71,239.07Z"/><path class="cls-14" d="M173.09,227.08a1.94,1.94,0,0,1-.1-1.37c0.54-1.23,3.32-1,4.06-.93,1,0.09,3.67.31,4,1.57,0.21,0.87-.8,1.81-1.39,2.36a3.94,3.94,0,0,1-2.79,1.33,3.84,3.84,0,0,1-2.22-1A4,4,0,0,1,173.09,227.08Z"/><path class="cls-15" d="M150.81,228.78a6.24,6.24,0,0,0-1.54.29,3.92,3.92,0,0,0-1.7.89,2.51,2.51,0,0,0-.58,2.68c0.62,1,2.2.06,4.56,0.89,2.53,0.9,2.61,2.66,4.43,2.73,1.48,0.06,1.37-1.1,4.12-1.92a22.92,22.92,0,0,0,4-1.16c1.5-.67,1.63-1,1.66-1.21,0.23-1.22-2.93-2.65-3.15-2.74C156.56,228.85,152.1,228.71,150.81,228.78Z"/><path class="cls-16" d="M151,228.4a3.34,3.34,0,0,0-.27,2.68c0.78,1.79,3.77,1.82,5.32,1.83,0.79,0,5.63.05,6.44-2.37a3,3,0,0,0-.22-2.15H151Z"/><path class="cls-17" d="M162.25,228.4a1.53,1.53,0,0,1,0,.58c-0.47,1.67-3.95,2.37-6.62,2-1.42-.22-4.49-1-4.61-2.55-0.1-1.31,2-2.6,3.67-3a6.79,6.79,0,0,1,3.58.22C158.86,225.8,162.05,226.64,162.25,228.4Z"/><path class="cls-21" d="M127.41,145.14a6,6,0,0,1,4.83-2.72,5.64,5.64,0,0,1,5.1,3.5,7.23,7.23,0,0,1-5.58,1.67A7.09,7.09,0,0,1,127.41,145.14Z"/><path class="cls-22" d="M65.59,143.59a21,21,0,0,1,9.58-3.53c1.38-.14,8.42-0.88,13.83,3.74a12.31,12.31,0,0,1,4.19,6.09,11.44,11.44,0,0,1,.25,5c-0.27.09-.69,0.22-1.2,0.35-4.38,1.1-11,.87-15.33-2.85a31.64,31.64,0,0,1-5.49-6,6.16,6.16,0,0,0-2.55-2.3A6.24,6.24,0,0,0,65.59,143.59Z"/><path class="cls-23" d="M65.45,143.67a17.66,17.66,0,0,1,9-4.48c0.49-.08,8-1.22,13.83,3.74A12.31,12.31,0,0,1,92.46,149a11.44,11.44,0,0,1,.25,5c-0.27.09-.69,0.22-1.2,0.35-4.38,1.1-11,.87-15.33-2.85a34.88,34.88,0,0,1-5.49-6,4.84,4.84,0,0,0-2.59-2.07A4.33,4.33,0,0,0,65.45,143.67Z"/><path class="cls-19" d="M80.7,231a2.2,2.2,0,0,0-.48.23,1.8,1.8,0,0,0-.87,1.19,1.67,1.67,0,0,0,1.09,1.06,5.79,5.79,0,0,0,4.16.16c0.87-.25,2.17-0.61,2.25-1.37a1.49,1.49,0,0,0-.68-1.14Z"/><polygon class="cls-24" points="86.79 144.44 89.09 150.06 82.41 149.72 88.09 149.16 86.79 144.44"/><polygon class="cls-25" points="84.03 146.13 81.97 142.08 83.24 145.64 79.02 146.13 84.03 146.13"/><path class="cls-26" d="M127.64,144.79a5.29,5.29,0,0,1,9.66,1.11A7.2,7.2,0,0,1,127.64,144.79Z"/><path class="cls-20" d="M86.28,231.46a0.75,0.75,0,0,1-.31.5c-1.08,1-2.91.75-3.75,0.63-1.06-.16-1.94-0.29-2-0.72-0.13-.61,1.37-1.7,2.91-1.81S86.29,230.77,86.28,231.46Z"/><path class="cls-22" d="M46.81,95.46c2.62-.8,20-5.81,33.4,4,2.79,2,10.48,7.65,11.41,16.84a19.15,19.15,0,0,1-.64,7.09,38.61,38.61,0,0,1-17.2-3.65,33.8,33.8,0,0,1-9.86-6.76,52.92,52.92,0,0,1-6.54-8.2c-1.93-3.3-2.85-5.17-5.32-7A13.69,13.69,0,0,0,46.81,95.46Z"/><path class="cls-27" d="M106.24,180.63a47.06,47.06,0,0,1,1.32-9c2.79-11.3,11.07-26.48,21.77-27.33a17.67,17.67,0,0,1,8,1.59,15.26,15.26,0,0,0-8.37-.93c-10.29,1.94-18.43,16.27-19.59,35.72Z"/><path class="cls-28" d="M46.62,95.65c4.58-1.75,14.88-4.89,25.7-1.24a30.6,30.6,0,0,1,7.59,3.8c2.29,1.59,10,6.93,11.21,16a19.25,19.25,0,0,1-.48,7.34,36.8,36.8,0,0,1-16.92-3.41,40,40,0,0,1-10.3-7.26,51.72,51.72,0,0,1-6.54-8.2h0C55,100,54,98,51.56,96.71A10.12,10.12,0,0,0,46.62,95.65Z"/><path class="cls-29" d="M99.88,180.39a5.17,5.17,0,0,0-1.5,1.17c-0.3.34-1.23,1.39-.92,2,0.21,0.42.78,0.19,1.83,0.67a5.45,5.45,0,0,1,1.75,1.33c1,1,.81,1.45,1.42,2.08,1.21,1.26,3.53,1.3,5.08.75,1.27-.45,1.37-1,2.75-2.08,3.45-2.6,6.93-1.95,7.17-3.25,0.07-.41-0.15-1.08-1.83-2.17Z"/><path class="cls-3" d="M163.33,111.08c-1.47-1.22-10.91-8.78-21.84-6.27-2.32.53-8.68,2-11.75,7.52a13.13,13.13,0,0,0-1.51,4.64A26.48,26.48,0,0,0,140,119.33a23.18,23.18,0,0,0,8-1.59,35.07,35.07,0,0,0,6.34-3.4c2.11-1.51,3.1-2.67,5.22-3.19A8.73,8.73,0,0,1,163.33,111.08Z"/><path class="cls-30" d="M164,111.56c-2.41-2.34-8.05-7.11-15.86-7.74a21,21,0,0,0-5.81.34c-1.87.38-8.18,1.66-11.41,7.08a13.2,13.2,0,0,0-1.69,4.76,25.24,25.24,0,0,0,11.59,2.43,27.41,27.41,0,0,0,8.45-1.79,35.48,35.48,0,0,0,6.34-3.4h0c1.93-1.25,3.09-2.22,5-2.35A6.94,6.94,0,0,1,164,111.56Z"/><path class="cls-31" d="M84.18,162.47c2.52-4.29,7-6,10.24-4.66a7.26,7.26,0,0,1,3.67,4.25,8.59,8.59,0,0,1-3.87,2,8.07,8.07,0,0,1-5.76-.65c-1-.59-1.66-1.4-2.88-1.37A3,3,0,0,0,84.18,162.47Z"/><path class="cls-32" d="M183.82,54.87c-3.7-1.06-24.4-6.66-40.68,4.82-3.72,2.62-12.92,9.12-14.06,19.79a21.51,21.51,0,0,0,.79,8.33,49.56,49.56,0,0,0,21.19-4.29,41.83,41.83,0,0,0,12.15-7.94,62.66,62.66,0,0,0,8.05-9.63c2.41-2.81,4.08-6.2,6.55-8.2A15,15,0,0,1,183.82,54.87Z"/><path class="cls-5" d="M137.2,108.75a14.35,14.35,0,0,0-3.15,4.11q-0.25.5-.45,1a23.81,23.81,0,0,0,3.23.62,23.57,23.57,0,0,0,4.81.08,39.27,39.27,0,0,1-4.69-.42c-1-.15-2-0.34-2.88-0.54,0.24-.53.52-1.09,0.85-1.66A19.21,19.21,0,0,1,137.2,108.75Z"/><path class="cls-5" d="M82,104.14a22.09,22.09,0,0,1,2.39,7.43c0.07,0.56.12,1.1,0.15,1.62A35.26,35.26,0,0,1,73,109.95a58.57,58.57,0,0,0,6.77,1.88c1.5,0.32,2.93.57,4.29,0.75-0.08-.87-0.2-1.8-0.38-2.78A29.55,29.55,0,0,0,82,104.14Z"/><path class="cls-5" d="M74.87,99a16,16,0,0,1,1.73,5.38c0.05,0.4.09,0.79,0.11,1.17a25.53,25.53,0,0,1-8.39-2.34,42.42,42.42,0,0,0,4.9,1.36c1.08,0.23,2.12.41,3.11,0.54-0.05-.63-0.14-1.31-0.27-2A21.4,21.4,0,0,0,74.87,99Z"/><path class="cls-5" d="M144,107.6a10.39,10.39,0,0,0-2.28,3q-0.18.36-.33,0.71a17.24,17.24,0,0,0,2.34.45,17.07,17.07,0,0,0,3.48.06,28.43,28.43,0,0,1-3.4-.3c-0.74-.11-1.43-0.24-2.08-0.39,0.17-.38.38-0.79,0.62-1.2A13.91,13.91,0,0,1,144,107.6Z"/><path class="cls-33" d="M66.32,95.23a12.19,12.19,0,0,1,1.85,3.89c0.08,0.3.15,0.59,0.2,0.87a19.46,19.46,0,0,1-6.57-.93,32.32,32.32,0,0,0,3.84.54c0.84,0.07,1.64.1,2.4,0.1-0.1-.47-0.24-1-0.41-1.5A16.31,16.31,0,0,0,66.32,95.23Z"/><path class="cls-34" d="M151.63,107.6a7.9,7.9,0,0,0-2,2c-0.12.17-.22,0.34-0.32,0.5a13.17,13.17,0,0,0,4.36,1,21.87,21.87,0,0,1-2.55-.57c-0.55-.16-1.06-0.33-1.54-0.5,0.17-.27.36-0.56,0.59-0.85A10.57,10.57,0,0,1,151.63,107.6Z"/><path class="cls-35" d="M186.08,55.1c-5.64-2.05-18.33-5.75-31.66-1.45a38.41,38.41,0,0,0-9.36,4.46C142.23,60,132.74,66.26,131.25,77a21.6,21.6,0,0,0,.59,8.63,47.26,47.26,0,0,0,20.85-4,48.8,48.8,0,0,0,6-3.35,52.89,52.89,0,0,0,6.65-5.18s2.87-1.34,8.05-9.63h0c2.29-3.26,3.52-5.58,6.55-7.08A13,13,0,0,1,186.08,55.1Z"/><path class="cls-5" d="M143,65.08a25.13,25.13,0,0,0-3,8.73c-0.09.65-.15,1.29-0.19,1.9a45.37,45.37,0,0,0,5.93-1,44.93,44.93,0,0,0,8.34-2.83,74.92,74.92,0,0,1-8.34,2.21c-1.84.38-3.61,0.66-5.28,0.88,0.09-1,.24-2.12.46-3.27A33.51,33.51,0,0,1,143,65.08Z"/><path class="cls-5" d="M151.8,59.07a18.2,18.2,0,0,0-2.14,6.32c-0.07.47-.11,0.93-0.13,1.38A32.66,32.66,0,0,0,159.86,64a54.25,54.25,0,0,1-6,1.6c-1.34.27-2.61,0.48-3.83,0.64,0.07-.74.17-1.53,0.34-2.37A24.27,24.27,0,0,1,151.8,59.07Z"/><path class="cls-36" d="M105.19,170.78a168.7,168.7,0,0,0-5.43-24.33,168.59,168.59,0,0,0-6.37-17.52c-3.25-4-8-4.5-10.14-2.61-1.86,1.62-1.51,4.73-1.45,5.21-0.09-.36-0.9-3.59.87-5.5,2-2.11,6.58-2.12,10,1.3-1.69-4.15-9.12-21-27.37-28.38a46.83,46.83,0,0,0-18.53-3.33A50,50,0,0,1,62.84,97.5c21.21,6.42,31.65,29,35.68,37.76a94,94,0,0,1,8,29.18Z"/><path class="cls-37" d="M162.33,54.61a14.05,14.05,0,0,0-2.28,4.57c-0.1.35-.18,0.69-0.25,1a25.06,25.06,0,0,0,8.1-1.09,41.64,41.64,0,0,1-4.73.63c-1,.08-2,0.11-3,0.12,0.13-.55.29-1.14,0.5-1.76A18.73,18.73,0,0,1,162.33,54.61Z"/><path class="cls-38" d="M112.26,143c2.94-9.73,8.21-20.36,18.27-26.77,14.82-9.46,32.9-5.21,32.9-5.32s-19.79-4.79-35.44,5.68c-8.05,5.39-12.66,13.21-15.41,19.95Z"/><path class="cls-39" d="M104.47,180.66c-0.64-2.27-1.38-4.65-2.26-7.12a108.14,108.14,0,0,0-4.65-11.08,10.82,10.82,0,0,0-8.64-2.41,9.92,9.92,0,0,0-4.74,2.41A9.29,9.29,0,0,1,97,161.65c-6.82-11.19-12.86-15.54-17.31-17.37a21.7,21.7,0,0,0-14.19-.64h0l0.09,0c0.08,0,7.51-1.05,9.08-1.11,4.3-.16,13.56,5.17,20.71,14a52.42,52.42,0,0,1,9.82,19.21Z"/><path class="cls-40" d="M162.7,68.07a2.16,2.16,0,0,0,.75,2.4c1.24,0.7,3.75-.6,3.73-2.14a2.27,2.27,0,0,0-2.15-2A2.41,2.41,0,0,0,162.7,68.07Z"/><path class="cls-41" d="M163,68a2,2,0,0,0,.7,2.25c1.17,0.66,3.52-.56,3.5-2a2.13,2.13,0,0,0-2-1.92A2.26,2.26,0,0,0,163,68Z"/><path class="cls-42" d="M165,66.66a2.24,2.24,0,0,0-1.47.88,2,2,0,0,0-.35,1.08,3.12,3.12,0,0,1,.55-1A3.34,3.34,0,0,1,165,66.66Z"/><path class="cls-43" d="M104.47,180.66l4.87,0C109.53,119.61,130,70.75,164.28,59a53.51,53.51,0,0,1,21-2.66,51.63,51.63,0,0,0-19.4,1.59C130.79,67.89,108,117.38,104.47,180.66Z"/><path class="cls-3" d="M150,134.65c-0.63-1-6.84-10.57-16.9-10.78-1.7,0-7.79-.16-11.75,4.2A11.93,11.93,0,0,0,119,131.8a23.21,23.21,0,0,0,9.74,4.42,20.53,20.53,0,0,0,7.29.23,32.53,32.53,0,0,0,6.2-1.69c2.16-1.08,3.44-1.84,5.16-1.53A5,5,0,0,1,150,134.65Z"/><path class="cls-44" d="M150,134.67c-1.58-2.48-5.43-7.68-12-9.79a18.38,18.38,0,0,0-5-.89c-1.67-.06-7.3-0.23-11.15,3.73a11.56,11.56,0,0,0-2.4,3.71,22.1,22.1,0,0,0,9.38,4.41,24,24,0,0,0,7.56.18,31.06,31.06,0,0,0,6.09-1.62h0c1.89-.67,3.08-1.27,4.72-1A6.08,6.08,0,0,1,150,134.67Z"/><path class="cls-40" d="M117.41,90.8a2.24,2.24,0,0,1-.72,2.42c-1.2.71-3.61-.6-3.59-2.16A2.24,2.24,0,0,1,115.16,89,2.34,2.34,0,0,1,117.41,90.8Z"/><path class="cls-41" d="M117.14,90.69a2.1,2.1,0,0,1-.67,2.27c-1.12.67-3.39-.57-3.37-2A2.1,2.1,0,0,1,115,89,2.19,2.19,0,0,1,117.14,90.69Z"/><path class="cls-42" d="M115.18,89.38a2.14,2.14,0,0,1,1.42.89,2,2,0,0,1,.33,1.08A3.19,3.19,0,0,0,115.18,89.38Z"/><path class="cls-40" d="M66,106.27a1.89,1.89,0,0,1-.61,2,2.33,2.33,0,0,1-3-1.82,1.89,1.89,0,0,1,1.74-1.74A2,2,0,0,1,66,106.27Z"/><path class="cls-41" d="M65.8,106.18a1.77,1.77,0,0,1-.57,1.92,2.19,2.19,0,0,1-2.84-1.71A1.77,1.77,0,0,1,64,104.76,1.85,1.85,0,0,1,65.8,106.18Z"/><path class="cls-42" d="M64.14,105.07a1.8,1.8,0,0,1,1.2.75,1.71,1.71,0,0,1,.28.92A2.69,2.69,0,0,0,64.14,105.07Z"/><path class="cls-45" d="M121.43,103.37a46.79,46.79,0,0,0-6.06-24.19A47.27,47.27,0,0,0,93,59.36,45.45,45.45,0,0,1,122,102Z"/><path class="cls-40" d="M110,88.46a0.69,0.69,0,0,1,.13-0.77,0.85,0.85,0,0,1,1.17.53,0.69,0.69,0,0,1-.55.7A0.72,0.72,0,0,1,110,88.46Z"/><path class="cls-41" d="M110.13,88.49a0.64,0.64,0,0,1,.12-0.72,0.8,0.8,0,0,1,1.1.49,0.64,0.64,0,0,1-.52.66A0.67,0.67,0,0,1,110.13,88.49Z"/><path class="cls-42" d="M110.78,88.82a0.66,0.66,0,0,1-.46-0.22,0.62,0.62,0,0,1-.14-0.32A1,1,0,0,0,110.78,88.82Z"/><path class="cls-46" d="M115.92,133.48a30,30,0,0,1,9.51-4.17,15.55,15.55,0,0,1,4.51-3.37A11.84,11.84,0,0,0,127.2,128a11.7,11.7,0,0,0-1,1.25,19.93,19.93,0,0,1,5.11-.54,12.15,12.15,0,0,1,1.74-1.11,12.32,12.32,0,0,1,4-1.28,14.54,14.54,0,0,0-4.77,2.39A26.44,26.44,0,0,1,150,134.52a31.57,31.57,0,0,0-7-3.46,32.18,32.18,0,0,0-16.61-1.2,12,12,0,0,0,5.14,2.35,12.15,12.15,0,0,1-6.2-2.22,20.78,20.78,0,0,0-10,4.8Z"/><path class="cls-47" d="M198.63,78.26l-1.12,2.88a1.17,1.17,0,0,0,1.06,1.41,1.22,1.22,0,0,0,1.12-1.41Z"/><path class="cls-48" d="M83.83,77l-1.41,5.75c-0.18,1.63.6,2.8,1.33,2.83s1.54-1.24,1.41-2.83Z"/><path class="cls-49" d="M156.33,158.1l-1.67,4.75a1.9,1.9,0,0,0,1.58,2.34,2,2,0,0,0,1.67-2.34Z"/><path class="cls-50" d="M159.9,92.51l-0.84,4.09c-0.11,1.15.35,2,.79,2s0.91-.88.84-2Z"/><path class="cls-51" d="M172.93,23.26l-0.84,4.09c-0.11,1.15.35,2,.79,2s0.91-.88.84-2Z"/><path class="cls-52" d="M103.86,119l-1.12,4.57c-0.15,1.29.47,2.23,1.06,2.25s1.22-1,1.12-2.25Z"/><path class="cls-53" d="M93.17,10L91.5,14.25a1.75,1.75,0,0,0,1.58,2.11,1.82,1.82,0,0,0,1.67-2.11Z"/><path class="cls-54" d="M47.84,138.13L47,142.22c-0.11,1.15.35,2,.79,2s0.91-.88.84-2Z"/><path class="cls-51" d="M126.21,35.23l-1.67,6.82c-0.22,1.93.71,3.32,1.58,3.35s1.83-1.47,1.67-3.35Z"/><path class="cls-55" d="M38.6,68.58l-1.67,5.25a2.09,2.09,0,0,0,1.58,2.58c0.9,0,1.83-1.13,1.67-2.58Z"/><path class="cls-51" d="M68.34,43.67L67.86,46a1,1,0,0,0,.45,1.15A1,1,0,0,0,68.79,46Z"/><path class="cls-50" d="M26.95,173.15l-0.84,4.09c-0.11,1.15.35,2,.79,2s0.91-.88.84-2Z"/><path class="cls-49" d="M186.1,135.09l-0.84,4.09c-0.11,1.15.35,2,.79,2s0.91-.88.84-2Z"/><path class="cls-50" d="M186.6,183.5l-0.84,4.09c-0.11,1.15.35,2,.79,2s0.91-.88.84-2Z"/><path class="cls-56" d="M30.17,18.76a15,15,0,0,0-2.12.07c-4.86.4-7,2.88-7.63,5.62h0.11a6.59,6.59,0,0,1,5-1.87c3.92,0,7.24,2.77,7.24,7.63a8.38,8.38,0,0,1-8.64,8.46c-6.23,0-9.29-4.64-9.29-10.22A14,14,0,0,1,18.94,18a14,14,0,0,1,9-3.46,15.57,15.57,0,0,1,2.2,0v4.21Zm-3,11.73c0-2.16-1.15-4-3.49-4a3.57,3.57,0,0,0-3.24,2.09,3.16,3.16,0,0,0-.22,1.37c0.11,2.48,1.3,4.71,3.78,4.71C26,34.64,27.18,32.87,27.18,30.5Z"/><path class="cls-50" d="M204.28,47.15l-0.84,4.09c-0.11,1.15.35,2,.79,2s0.91-.88.84-2Z"/><path class="cls-50" d="M38.39,106.71l-0.84,4.09c-0.11,1.15.35,2,.79,2s0.91-.88.84-2Z"/></svg>