<svg id="Layer_1" data-name="Layer 1" xmlns="http://www.w3.org/2000/svg" xmlns:xlink="http://www.w3.org/1999/xlink" viewBox="0 0 221.6 248.84"><defs><style>.cls-1{stroke:#fff;stroke-miterlimit:10;stroke-width:5px;fill:url(#linear-gradient);}.cls-2{fill:#fff;}</style><linearGradient id="linear-gradient" x1="110.8" y1="2.5" x2="110.8" y2="246.34" gradientUnits="userSpaceOnUse"><stop offset="0.27" stop-color="#64c7c3"/><stop offset="0.44" stop-color="#5ebebf"/><stop offset="0.74" stop-color="#50b3bb"/><stop offset="1" stop-color="#1693ae"/></linearGradient></defs><title>fluorine</title><rect class="cls-1" x="2.5" y="2.5" width="216.6" height="243.84"/><path class="cls-2" d="M261.08,42a15.66,15.66,0,0,0,3.26-.1,11.79,11.79,0,0,0,6.34-2.4,11.54,11.54,0,0,0,4-6.91l-0.1,0a8.63,8.63,0,0,1-6.82,2.78c-5.42,0-9.46-3.94-9.46-9.7a11.06,11.06,0,0,1,11.28-11.14c7.25,0,11.14,5.71,11.14,13.3,0,6.67-2.21,11.42-5.42,14.5a17.18,17.18,0,0,1-10.66,4.27,23.32,23.32,0,0,1-3.55.1V42Zm3.07-16.71c0,3.22,1.87,5.71,5.14,5.71a5.69,5.69,0,0,0,5-2.59,3.54,3.54,0,0,0,.34-1.68c0-4.22-1.54-7.87-5.38-7.87C266.31,18.89,264.15,21.53,264.15,25.32Z" transform="translate(-238.51 2.5)"/><path class="cls-2" d="M323.6,71h55.62V87.91h-35V108.7h32.67v16.74H344.25V162H323.6V71Z" transform="translate(-238.51 2.5)"/><path class="cls-2" d="M291.81,203.2h9.34v2.42h-6.38v4.46h6v2.42h-6v6.86h-3V203.2Z" transform="translate(-238.51 2.5)"/><path class="cls-2" d="M305.51,203.2h3v13.71h6.65v2.47h-9.6V203.2Z" transform="translate(-238.51 2.5)"/><path class="cls-2" d="M321,203.2v9.43c0,3.17,1.32,4.63,3.31,4.63s3.41-1.46,3.41-4.63V203.2h3v9.24c0,5-2.57,7.2-6.46,7.2s-6.17-2.09-6.17-7.18V203.2h3Z" transform="translate(-238.51 2.5)"/><path class="cls-2" d="M349.87,211.12c0,5.42-3.29,8.52-7.75,8.52s-7.44-3.48-7.44-8.23c0-5,3.12-8.47,7.68-8.47C347.09,202.94,349.87,206.51,349.87,211.12Zm-12.07.24c0,3.29,1.66,5.9,4.49,5.9s4.46-2.64,4.46-6c0-3-1.51-5.93-4.46-5.93S337.8,208,337.8,211.36Z" transform="translate(-238.51 2.5)"/><path class="cls-2" d="M353.9,203.42a28,28,0,0,1,4.46-.34c2.33,0,3.91.38,5,1.3a4.09,4.09,0,0,1,1.39,3.24,4.31,4.31,0,0,1-2.93,4.06v0.07c1.15,0.43,1.85,1.56,2.26,3.12a32.3,32.3,0,0,0,1.27,4.51h-3a23.14,23.14,0,0,1-1.08-3.82c-0.46-2.11-1.22-2.78-2.9-2.83h-1.49v6.65H353.9v-16Zm2.93,7.15h1.75c2,0,3.24-1.06,3.24-2.66,0-1.78-1.25-2.59-3.17-2.59a8.44,8.44,0,0,0-1.82.14v5.11Z" transform="translate(-238.51 2.5)"/><path class="cls-2" d="M372,203.2v16.18h-3V203.2h3Z" transform="translate(-238.51 2.5)"/><path class="cls-2" d="M376.87,219.38V203.2h3.36l4.18,6.94a44.56,44.56,0,0,1,2.76,5.42h0c-0.19-2.16-.26-4.25-0.26-6.72V203.2h2.74v16.18h-3l-4.22-7.1a55.9,55.9,0,0,1-2.9-5.59l-0.07,0c0.12,2.09.14,4.22,0.14,6.89v5.78h-2.71Z" transform="translate(-238.51 2.5)"/><path class="cls-2" d="M403.64,212.2h-6.1V217h6.82v2.42h-9.77V203.2H404v2.42h-6.46v4.18h6.1v2.4Z" transform="translate(-238.51 2.5)"/></svg>