<svg id="Layer_1" data-name="Layer 1" xmlns="http://www.w3.org/2000/svg" xmlns:xlink="http://www.w3.org/1999/xlink" viewBox="0 0 221.6 248.84"><defs><style>.cls-1{fill:none;}.cls-2{stroke:#afcfe8;stroke-miterlimit:10;stroke-width:5px;fill:url(#linear-gradient);}.cls-3,.cls-4,.cls-5,.cls-7{fill:#fff;}.cls-3{opacity:0.51;}.cls-4{opacity:0.58;}.cls-6{fill:#d22629;}.cls-7{opacity:0.2;}.cls-8{fill:#2e4c93;}.cls-9{fill:#385a9e;}.cls-10{fill:url(#linear-gradient-2);}.cls-11{clip-path:url(#clip-path);}.cls-12{fill:#edbb61;}.cls-13{fill:#8dc6e7;}.cls-14{fill:#7db4d5;}.cls-15{fill:#fcf2ee;}.cls-16{fill:#a1cbe5;}.cls-17{opacity:0.75;isolation:isolate;fill:url(#linear-gradient-3);}</style><linearGradient id="linear-gradient" x1="110.8" y1="246.34" x2="110.8" y2="2.5" gradientUnits="userSpaceOnUse"><stop offset="0" stop-color="#a14f9d"/><stop offset="0.35" stop-color="#8180b1"/><stop offset="0.62" stop-color="#738cb8"/><stop offset="1" stop-color="#6994bc"/></linearGradient><linearGradient id="linear-gradient-2" x1="110.33" y1="235.92" x2="110.33" y2="196.71" gradientUnits="userSpaceOnUse"><stop offset="0" stop-color="#f06b22"/><stop offset="0.74" stop-color="#ee9724"/><stop offset="1" stop-color="#ecb24a"/></linearGradient><clipPath id="clip-path"><rect class="cls-1" x="110.64" y="44.01" width="28.15" height="157.61"/></clipPath><linearGradient id="linear-gradient-3" x1="-64.9" y1="647.46" x2="-39.72" y2="647.46" gradientTransform="translate(175.41 -574.22) rotate(6.91)" gradientUnits="userSpaceOnUse"><stop offset="0.22" stop-color="#fff"/><stop offset="0.88" stop-color="#8cb7dc"/></linearGradient></defs><title>jj</title><rect class="cls-2" x="2.5" y="2.5" width="216.6" height="243.84"/><path class="cls-3" d="M5,223.73c1.05-2.38,5.66-12.21,15.5-16.47a22.66,22.66,0,0,1,19.75.94c1.15-3.54,4.27-11.7,11.25-17.4,11.86-9.69,24.77-4,26.5-3.23,1.82-2.47,12.32-16.27,29.25-16.47,17.66-.2,28.61,14.55,30.33,17,2.9-1.12,18.31-6.65,33.17,4.68,8.41,6.41,12.86,15.34,14.83,20,1.33-1,8.6-6.16,17.67-2.91,8.5,3.05,12.63,11.38,13.5,13.24l-0.25,20.66H5.3Z"/><path class="cls-4" d="M34,243.86A23.91,23.91,0,0,1,41.55,231a18.17,18.17,0,0,1,15-4A29.08,29.08,0,0,1,66,216.87c10.27-6.44,20.72-2.58,22.77-1.77,0.76-5.92,4.2-10.9,9-13,6.78-2.93,12.58,1.63,13.07,2a12.63,12.63,0,0,1,14.43,1.15c4.25,3.54,5.21,8.9,5.41,10.19a33,33,0,0,1,21.84,3.39,38.33,38.33,0,0,1,12.5,11c1.45-.33,10.26-2.14,17.5,4.56a23.5,23.5,0,0,1,6,9.37H34Z"/><path class="cls-5" d="M61,243.86A19.78,19.78,0,0,1,84,230.27a16.2,16.2,0,0,1,10.75-5.5,15.07,15.07,0,0,1,6.62,1.08,10.82,10.82,0,0,1,19.65.41,14.1,14.1,0,0,1,10.48.26,14,14,0,0,1,6.75,6.5,19.15,19.15,0,0,1,23,10.75Z"/><path class="cls-6" d="M148.79,206.23a1.81,1.81,0,0,0,.86,1.23c1.66,0,2.32-15,1.92-26.67-0.48-13.57-2.24-17.58-3.59-20a50.84,50.84,0,0,0-6.61-8.6,74.52,74.52,0,0,0-8.73-8.27l-0.83,38.78a31,31,0,0,1,4.87,4.29A76.45,76.45,0,0,1,148.79,206.23Z"/><path class="cls-7" d="M5.26,135.7H109.87a10.06,10.06,0,0,0-16.44-5.5h0a13.72,13.72,0,0,0-1.53-3.82,11.92,11.92,0,0,0-2.07-2.51,13.79,13.79,0,0,0-12.16-3.25,17.13,17.13,0,0,0-2.42.63,18.64,18.64,0,0,0-6.08-9.87,17.32,17.32,0,0,0-9.95-4,18,18,0,0,0-18.43,14.05,12.94,12.94,0,0,0-17.92,1.9,12.3,12.3,0,0,0-2.77,6.78,10.74,10.74,0,0,0-9.76-1.88,10,10,0,0,0-5.07,4.16v3.36h0Z"/><path class="cls-6" d="M71.73,206.23a1.78,1.78,0,0,1-.86,1.23c-1.66,0-2.32-15-1.92-26.67,0.48-13.57,2.24-17.58,3.59-20a50.84,50.84,0,0,1,6.61-8.6A74.52,74.52,0,0,1,87.88,144l0.83,38.78A32.8,32.8,0,0,0,83.93,187,76.81,76.81,0,0,0,71.73,206.23Z"/><path class="cls-8" d="M88.09,150c-1.54,1.54-3.72,3.64-6.15,6.42a42.16,42.16,0,0,0-5.47,7c-2.26,4-2.55,8.14-3.07,16.18-0.17,2.87-.29,6.84-0.12,11.57,0.48-2.18,1.34-6.15,2.47-11,2.17-9.6,2.77-12,4.69-14.81,0.72-1.06,2.3-3.07,4.13-5.28,1.37-1.54,2.58-2.89,3.46-3.78V150h0.06Z"/><path class="cls-8" d="M93,196.76h34.57a5.58,5.58,0,0,0,5.58-5.58V104a52.44,52.44,0,0,0-.22-6.84c-0.33-3.35-1.43-11.27-9.33-26a152.53,152.53,0,0,0-8.8-14.42,5.59,5.59,0,0,0-9.18,0A133.73,133.73,0,0,0,98.3,68.5C93.81,76.57,89.44,84.61,88,95.83a58.34,58.34,0,0,0-.5,8.18v87.17A5.58,5.58,0,0,0,93,196.76Z"/><path class="cls-9" d="M133.25,150c1.54,1.54,3.72,3.64,6.15,6.42a42.16,42.16,0,0,1,5.47,7c2.26,4,2.55,8.14,3.07,16.18,0.17,2.87.29,6.84,0.12,11.57-0.48-2.18-1.34-6.15-2.47-11-2.17-9.6-2.77-12-4.69-14.81-0.72-1.06-2.3-3.07-4.13-5.28-1.37-1.54-2.58-2.89-3.46-3.78V150h-0.06Z"/><path class="cls-10" d="M99.88,196.71h21.37a17.81,17.81,0,0,1,3.59,14.81,17.1,17.1,0,0,1-6.51,9.65,4.61,4.61,0,0,0-1.54-5.16,4,4,0,0,0-4.72.91c-2.66,3.26,4.13,10.09,1.35,15.93a8.05,8.05,0,0,1-2.81,3.07,14.27,14.27,0,0,0-1-4.72c-1.54-3.69-4.06-5.28-6.3-7.44-0.49-.46-6.61-6.34-7.68-13.23C95.3,208.92,94.85,203.53,99.88,196.71Z"/><g class="cls-11"><path class="cls-9" d="M93.42,196.79h34.4a5.66,5.66,0,0,0,5.66-5.66V104a52.44,52.44,0,0,0-.22-6.84c-0.33-3.35-1.43-11.27-9.33-26a152.52,152.52,0,0,0-8.73-14.32,5.67,5.67,0,0,0-9.31,0,133.72,133.72,0,0,0-7.29,11.66c-4.48,8.07-8.85,16.11-10.33,27.33a58.34,58.34,0,0,0-.5,8.18v87.08A5.66,5.66,0,0,0,93.42,196.79Z"/></g><path class="cls-12" d="M102.12,196.71a7.91,7.91,0,0,0,0,3.58c0.49,2,1.66,2.87,1.54,4.38a3.83,3.83,0,0,1-1.54,2.35,5.38,5.38,0,0,0,4.06-.68,13.26,13.26,0,0,0,1.8-2.24,4,4,0,0,1-.83,3.07c-1,1.44-1.77,1.41-3.07,2.8a9.92,9.92,0,0,0-1.8,3.07c-1.29,3.78,2.29,8.05,2.7,8.53a15.92,15.92,0,0,1,2.47-3.83c3.07-3.55,5.59-3.07,9-6.15a12.77,12.77,0,0,0,4.61-8.53,10.88,10.88,0,0,0-1.91-6.39,11.88,11.88,0,0,1-8.54,12.46,6.54,6.54,0,0,0-.23-4.61c-1.24-2.61-4.22-3.07-4.72-5.61a4.18,4.18,0,0,1,.23-2.24h-3.83Z"/><rect class="cls-6" x="87.56" y="188.95" width="45.69" height="2.75"/><ellipse class="cls-6" cx="110.28" cy="94.56" rx="9.86" ry="10.12"/><ellipse class="cls-13" cx="110.28" cy="94.56" rx="7.5" ry="7.7"/><path class="cls-14" d="M113.8,87.76a8,8,0,0,1,2.91,10.94v0l-0.09.15A7.54,7.54,0,0,1,106.16,101h-0.09Z"/><ellipse class="cls-15" cx="72.46" cy="63.6" rx="0.69" ry="0.67" transform="translate(5.47 132.94) rotate(-87.26)"/><path class="cls-7" d="M96.3,39.71A7.68,7.68,0,0,1,101,34.35a7.34,7.34,0,0,1,6.78,1.31,8.86,8.86,0,0,1,14.35-6.18,12.18,12.18,0,0,1,24-.09,9.82,9.82,0,0,1,10.14,1.87,9.18,9.18,0,0,1,2.36,4.52,7.33,7.33,0,0,1,6.67-1.39,7.7,7.7,0,0,1,4.87,5.32H96.3Z"/><path class="cls-7" d="M216.8,89.38v5.43h-69a7.68,7.68,0,0,1,4.68-5.36,7.34,7.34,0,0,1,6.78,1.33,8.86,8.86,0,0,1,14.39-6.18,12.18,12.18,0,0,1,24-.09,9.82,9.82,0,0,1,10.14,1.87,9.18,9.18,0,0,1,2.45,4.52A7.33,7.33,0,0,1,216.8,89.38Z"/><ellipse class="cls-16" cx="43.79" cy="85.1" rx="0.67" ry="0.64" transform="translate(-43.3 124.77) rotate(-87.26)"/><ellipse class="cls-16" cx="17.99" cy="70.47" rx="0.67" ry="0.64" transform="translate(-53.26 85.07) rotate(-87.26)"/><path class="cls-16" d="M147.47,65.7a1.87,1.87,0,0,1,1.44-2.08,1.76,1.76,0,0,1,2,1.48h0a1.87,1.87,0,0,1-1.44,2.08,1.76,1.76,0,0,1-2-1.48h0Z"/><path class="cls-16" d="M56,144.18a1.31,1.31,0,0,1,1-1.53h0a1.29,1.29,0,0,1,1.48,1.08h0a1.31,1.31,0,0,1-1,1.53h0A1.29,1.29,0,0,1,56,144.19h0Z"/><path class="cls-16" d="M171.08,120.93a0.67,0.67,0,0,1,.54-0.77,0.64,0.64,0,0,1,.75.51v0h0a0.67,0.67,0,0,1-.54.77,0.64,0.64,0,0,1-.75-0.51v0h0Z"/><path class="cls-16" d="M76.47,20.13a0.64,0.64,0,0,1-.86-0.27h0a0.67,0.67,0,0,1,.3-0.88,0.64,0.64,0,0,1,.86.27h0A0.67,0.67,0,0,1,76.47,20.13Z"/><path class="cls-16" d="M200.34,20.78a0.64,0.64,0,0,1-.86-0.27h0a0.67,0.67,0,0,1,.3-0.88,0.64,0.64,0,0,1,.86.27h0A0.67,0.67,0,0,1,200.34,20.78Z"/><path class="cls-16" d="M129,30.15a0.64,0.64,0,0,1-.86-0.27h0a0.67,0.67,0,0,1,.3-0.88,0.64,0.64,0,0,1,.86.27h0A0.67,0.67,0,0,1,129,30.15Z"/><path class="cls-17" d="M61.1,56.65l-9.87,2.47-15.42,4a1.18,1.18,0,0,0-.92,1.31,1.12,1.12,0,0,0,1.52.28q6.6-2.1,13.28-4.31Q55.44,58.56,61.1,56.65Z"/><path class="cls-5" d="M192.19,36.33a2.81,2.81,0,0,1,.56-1.31,2.6,2.6,0,0,1,.6,1.31,0.62,0.62,0,0,0,0,.22,0.58,0.58,0,0,0,.21.19h0.32l0.43,0.09a1,1,0,0,1,.69.45,3,3,0,0,1-1.42.56,0.3,0.3,0,0,0-.19,0,0.32,0.32,0,0,0,0,.21,1.87,1.87,0,0,1-.58,1.41,1.09,1.09,0,0,1-.37-0.6,2.25,2.25,0,0,0-.09-0.37V38.11a0.47,0.47,0,0,0-.13-0.24,0.45,0.45,0,0,0-.24.06,1.72,1.72,0,0,1-1.31-.52,1,1,0,0,1,.58-0.47l0.37-.13h0.24a0.73,0.73,0,0,0,.3-0.21A0.54,0.54,0,0,0,192.19,36.33Z"/><path class="cls-5" d="M198.32,127.64a2.1,2.1,0,0,1,.34-0.92,1.87,1.87,0,0,1,.37.92,0.47,0.47,0,0,0,0,.17,0.37,0.37,0,0,0,.13.13h0.47a0.64,0.64,0,0,1,.43.32,1.76,1.76,0,0,1-.88.37,0.19,0.19,0,0,0-.11,0,0.22,0.22,0,0,0,0,.15,1.29,1.29,0,0,1-.36,1,0.77,0.77,0,0,1-.24-0.41,0.41,0.41,0,0,0,0-.26,0.39,0.39,0,0,1,0-.26,0.36,0.36,0,0,0,0-.19,0.28,0.28,0,0,0-.15,0,1,1,0,0,1-.82-0.36,0.62,0.62,0,0,1,.37-0.3h0.39a0.47,0.47,0,0,0,.19-0.15A0.41,0.41,0,0,0,198.32,127.64Z"/><path class="cls-16" d="M193.66,64.61a1.31,1.31,0,0,1,1-1.53h0a1.29,1.29,0,0,1,1.48,1.08h0a1.31,1.31,0,0,1-1,1.53h0a1.29,1.29,0,0,1-1.48-1.08h0Z"/><path class="cls-5" d="M20.56,163.08a2.81,2.81,0,0,1,.56-1.31,2.6,2.6,0,0,1,.6,1.31,0.62,0.62,0,0,0,0,.22,0.58,0.58,0,0,0,.21.19h0.32l0.43,0.11a1,1,0,0,1,.69.45,3,3,0,0,1-1.42.56,0.3,0.3,0,0,0-.19,0,0.32,0.32,0,0,0,0,.21,1.87,1.87,0,0,1-.58,1.41,1.09,1.09,0,0,1-.37-0.6,2.25,2.25,0,0,0-.09-0.37v-0.37a0.47,0.47,0,0,0-.13-0.24,0.45,0.45,0,0,0-.22-0.11A1.72,1.72,0,0,1,19,164a1,1,0,0,1,.6-0.43l0.37-.13,0.13,0.19a0.73,0.73,0,0,0,.3-0.21A0.54,0.54,0,0,0,20.56,163.08Z"/><path class="cls-5" d="M20.74,93.39a2.1,2.1,0,0,1,.34-0.92,1.87,1.87,0,0,1,.37.92,0.47,0.47,0,0,0,0,.17,0.37,0.37,0,0,0,.13.13h0.47a0.64,0.64,0,0,1,.43.32,1.76,1.76,0,0,1-.88.37,0.19,0.19,0,0,0-.11,0,0.22,0.22,0,0,0,0,.15,1.29,1.29,0,0,1-.36,1,0.77,0.77,0,0,1-.24-0.41,0.41,0.41,0,0,0,0-.26,0.39,0.39,0,0,1,0-.26,0.36,0.36,0,0,0,0-.19,0.28,0.28,0,0,0-.15,0,1,1,0,0,1-.82-0.36,0.62,0.62,0,0,1,.37-0.3h0.39a0.47,0.47,0,0,0,.19-0.15A0.41,0.41,0,0,0,20.74,93.39Z"/><path class="cls-16" d="M157,144.53a0.64,0.64,0,0,1-.86-0.27h0a0.67,0.67,0,0,1,.3-0.88,0.64,0.64,0,0,1,.86.27h0A0.67,0.67,0,0,1,157,144.53Z"/><path class="cls-16" d="M193.75,170.27a0.64,0.64,0,0,1-.86-0.27h0a0.67,0.67,0,0,1,.3-0.88,0.64,0.64,0,0,1,.86.27h0A0.67,0.67,0,0,1,193.75,170.27Z"/><path class="cls-5" d="M18.39,34.63a11.75,11.75,0,0,0,2.45-.07,8.84,8.84,0,0,0,4.75-1.8,8.65,8.65,0,0,0,3-5.18l-0.07,0a6.47,6.47,0,0,1-5.11,2.09,6.91,6.91,0,0,1-7.09-7.27A8.29,8.29,0,0,1,24.76,14c5.44,0,8.35,4.28,8.35,10,0,5-1.66,8.57-4.07,10.87a12.88,12.88,0,0,1-8,3.2,17.47,17.47,0,0,1-2.66.07V34.63ZM20.7,22.1c0,2.41,1.4,4.28,3.85,4.28a4.26,4.26,0,0,0,3.78-1.94,2.64,2.64,0,0,0,.25-1.26c0-3.17-1.15-5.9-4-5.9C22.32,17.28,20.7,19.26,20.7,22.1Z"/></svg>