<svg id="Layer_1" data-name="Layer 1" xmlns="http://www.w3.org/2000/svg" xmlns:xlink="http://www.w3.org/1999/xlink" viewBox="0 0 1421.41 805.85"><defs><style>.cls-1{fill:none;}.cls-2,.cls-60,.cls-61,.cls-62,.cls-63{opacity:0.92;}.cls-2{fill:url(#linear-gradient);}.cls-3,.cls-9{fill:#1184a8;}.cls-3{opacity:0.4;}.cls-4{opacity:0.23;fill:url(#linear-gradient-2);}.cls-5{fill:#f5f6f7;}.cls-35,.cls-6{fill:#004f77;}.cls-7{fill:#d3dce6;}.cls-8{fill:#06648a;}.cls-10{fill:url(#linear-gradient-3);}.cls-11{fill:url(#linear-gradient-4);}.cls-12{fill:url(#linear-gradient-5);}.cls-13{fill:#edbb61;}.cls-14{fill:url(#linear-gradient-6);}.cls-15{fill:#e9eef3;}.cls-16{clip-path:url(#clip-path);}.cls-17{fill:#dfe6ed;}.cls-18{fill:#d4dadd;}.cls-19{fill:url(#linear-gradient-7);}.cls-20{fill:url(#linear-gradient-8);}.cls-21{fill:#e8e9ea;}.cls-22{fill:url(#linear-gradient-9);}.cls-23,.cls-28,.cls-33,.cls-59{fill:#fff;}.cls-23{opacity:0.7;}.cls-24{fill:#013b51;}.cls-25{fill:url(#linear-gradient-10);}.cls-26{fill:url(#linear-gradient-11);}.cls-27{fill:url(#linear-gradient-12);}.cls-28{opacity:0.24;}.cls-29{fill:url(#linear-gradient-13);}.cls-30{fill:url(#linear-gradient-14);}.cls-31{fill:url(#linear-gradient-15);}.cls-32{fill:#b1c1c9;}.cls-33{opacity:0.38;}.cls-34{fill:url(#linear-gradient-16);}.cls-35{opacity:0.27;}.cls-36,.cls-37{fill:#989899;}.cls-36,.cls-38{opacity:0.3;}.cls-37{opacity:0.19;}.cls-38{fill:url(#radial-gradient);}.cls-39{fill:url(#linear-gradient-17);}.cls-40{fill:url(#linear-gradient-18);}.cls-41{fill:url(#linear-gradient-19);}.cls-42{fill:url(#linear-gradient-20);}.cls-43{fill:#f2f2f2;}.cls-44,.cls-46,.cls-47{opacity:0.28;}.cls-44{fill:url(#linear-gradient-21);}.cls-45{fill:url(#radial-gradient-2);}.cls-46{fill:url(#linear-gradient-22);}.cls-47{fill:url(#linear-gradient-23);}.cls-48{fill:#c3d0d8;}.cls-49{fill:#dae3ea;}.cls-50{fill:url(#linear-gradient-24);}.cls-51{fill:url(#linear-gradient-25);}.cls-52{fill:url(#linear-gradient-26);}.cls-53{fill:#ce4253;}.cls-54{fill:url(#linear-gradient-27);}.cls-55{fill:url(#linear-gradient-28);}.cls-56{fill:url(#linear-gradient-29);}.cls-57{fill:url(#linear-gradient-30);}.cls-58{fill:url(#linear-gradient-31);}.cls-59{opacity:0.2;}.cls-60{fill:url(#radial-gradient-3);}.cls-61{fill:url(#radial-gradient-4);}.cls-62{fill:url(#radial-gradient-5);}.cls-63{fill:url(#radial-gradient-6);}.cls-64,.cls-65,.cls-66,.cls-67{opacity:0.46;}.cls-64{fill:url(#radial-gradient-7);}.cls-65{fill:url(#radial-gradient-8);}.cls-66{fill:url(#radial-gradient-9);}.cls-67{fill:url(#radial-gradient-10);}</style><linearGradient id="linear-gradient" x1="712.64" y1="-0.99" x2="712.64" y2="804.86" gradientUnits="userSpaceOnUse"><stop offset="0" stop-color="#469bb3"/><stop offset="0.8" stop-color="#7dccc6"/></linearGradient><linearGradient id="linear-gradient-2" x1="-1.23" y1="623.88" x2="1427.02" y2="623.88" gradientUnits="userSpaceOnUse"><stop offset="0" stop-color="#469bb3"/><stop offset="0" stop-color="#fff"/></linearGradient><linearGradient id="linear-gradient-3" x1="1066.6" y1="575.46" x2="1112.53" y2="575.46" gradientUnits="userSpaceOnUse"><stop offset="0.68" stop-color="#d3dce6"/><stop offset="0.86" stop-color="#e9eef3"/></linearGradient><linearGradient id="linear-gradient-4" x1="1088.98" y1="638.53" x2="1088.98" y2="606.15" gradientUnits="userSpaceOnUse"><stop offset="0" stop-color="#8d211c"/><stop offset="0.9" stop-color="#d84827"/></linearGradient><linearGradient id="linear-gradient-5" x1="-1827.35" y1="1704.03" x2="-1827.35" y2="1651.69" gradientTransform="translate(-737.85 2210.38) rotate(180)" gradientUnits="userSpaceOnUse"><stop offset="0" stop-color="#f06c24"/><stop offset="0.74" stop-color="#ef9824"/><stop offset="1" stop-color="#ebb24a"/></linearGradient><linearGradient id="linear-gradient-6" x1="1089.07" y1="560.76" x2="1089.07" y2="568.02" gradientUnits="userSpaceOnUse"><stop offset="0" stop-color="#9b9eab"/><stop offset="0.68" stop-color="#bdc4ce"/></linearGradient><clipPath id="clip-path"><path class="cls-1" d="M1012.58,466.44h73.89q0-89.93.08-179.86l-73.63.34Q1012.75,376.68,1012.58,466.44Z"/></clipPath><linearGradient id="linear-gradient-7" x1="1153.32" y1="328.37" x2="1153.32" y2="338.04" gradientUnits="userSpaceOnUse"><stop offset="0.37" stop-color="#004f77"/><stop offset="0.67" stop-color="#06648a"/><stop offset="0.89" stop-color="#1184a8"/></linearGradient><linearGradient id="linear-gradient-8" x1="1269.68" y1="461.61" x2="1269.68" y2="471.28" xlink:href="#linear-gradient-7"/><linearGradient id="linear-gradient-9" x1="1087.03" y1="391.96" x2="1087.03" y2="461.61" gradientUnits="userSpaceOnUse"><stop offset="0" stop-color="#c5e8ec"/><stop offset="0.38" stop-color="#74aacd"/><stop offset="1" stop-color="#4a72b8"/></linearGradient><linearGradient id="linear-gradient-10" x1="220.27" y1="-302.08" x2="222.38" y2="-302.08" gradientTransform="translate(717.08 347.01) rotate(48.15)" xlink:href="#linear-gradient-9"/><linearGradient id="linear-gradient-11" x1="1072.13" y1="418.04" x2="1110.01" y2="483.65" gradientUnits="userSpaceOnUse"><stop offset="0" stop-color="#c5e8ec"/><stop offset="0.38" stop-color="#74aacd"/><stop offset="0.44" stop-color="#6ca1c4"/><stop offset="1" stop-color="#0a5272"/></linearGradient><linearGradient id="linear-gradient-12" x1="-967.76" y1="2050.63" x2="-964.65" y2="2050.63" gradientTransform="translate(-439.77 2029.34) rotate(-162.85)" xlink:href="#linear-gradient-9"/><linearGradient id="linear-gradient-13" x1="1075.77" y1="381.03" x2="1085.19" y2="381.03" xlink:href="#linear-gradient-9"/><linearGradient id="linear-gradient-14" x1="1093.69" y1="382.72" x2="1107.34" y2="382.72" xlink:href="#linear-gradient-9"/><linearGradient id="linear-gradient-15" x1="1088.84" y1="366.3" x2="1094.31" y2="366.3" xlink:href="#linear-gradient-9"/><linearGradient id="linear-gradient-16" x1="226.3" y1="-300.94" x2="229.36" y2="-300.94" gradientTransform="translate(717.08 347.01) rotate(48.15)" xlink:href="#linear-gradient-9"/><radialGradient id="radial-gradient" cx="1090.93" cy="211.01" r="8.51" gradientTransform="translate(-37.26) scale(1.03 1)" gradientUnits="userSpaceOnUse"><stop offset="0" stop-color="#fff"/><stop offset="0.33" stop-color="#f2f2f2"/><stop offset="1" stop-color="#989899"/></radialGradient><linearGradient id="linear-gradient-17" x1="1074.17" y1="601.69" x2="1074.17" y2="607.5" gradientUnits="userSpaceOnUse"><stop offset="0" stop-color="#8d211c"/><stop offset="0" stop-color="#d84827"/></linearGradient><linearGradient id="linear-gradient-18" x1="1088.33" y1="597.82" x2="1088.33" y2="607.5" xlink:href="#linear-gradient-17"/><linearGradient id="linear-gradient-19" x1="1100.6" y1="604.3" x2="1100.6" y2="607.56" xlink:href="#linear-gradient-17"/><linearGradient id="linear-gradient-20" x1="1111.4" y1="601.69" x2="1111.4" y2="607.5" xlink:href="#linear-gradient-17"/><linearGradient id="linear-gradient-21" x1="1094.1" y1="727.86" x2="1398.84" y2="727.86" gradientUnits="userSpaceOnUse"><stop offset="0" stop-color="#469bb3"/><stop offset="0" stop-color="#7dccc6"/></linearGradient><radialGradient id="radial-gradient-2" cx="900.84" cy="664.45" r="26.84" gradientTransform="translate(0 -118) scale(1 1.18)" gradientUnits="userSpaceOnUse"><stop offset="0" stop-color="#8d8d8d"/><stop offset="0.25" stop-color="#919191"/><stop offset="0.81" stop-color="#bfc2c4"/><stop offset="1" stop-color="#ccd1d4"/><stop offset="1" stop-color="#d4dadd"/></radialGradient><linearGradient id="linear-gradient-22" x1="-0.32" y1="741.56" x2="295.15" y2="741.56" xlink:href="#linear-gradient-21"/><linearGradient id="linear-gradient-23" x1="267.63" y1="685.7" x2="421.47" y2="685.7" xlink:href="#linear-gradient-21"/><linearGradient id="linear-gradient-24" x1="906.36" y1="627.28" x2="1000.54" y2="627.28" gradientTransform="matrix(-1, 0, 0, 1, 1854.64, 0)" gradientUnits="userSpaceOnUse"><stop offset="0" stop-color="#9fc8dd"/><stop offset="0.38" stop-color="#74aacd"/><stop offset="1" stop-color="#4a72b8"/></linearGradient><linearGradient id="linear-gradient-25" x1="1305.7" y1="503.32" x2="1335.93" y2="503.32" gradientUnits="userSpaceOnUse"><stop offset="0.28" stop-color="#f05364"/><stop offset="1" stop-color="#fdb93c"/></linearGradient><linearGradient id="linear-gradient-26" x1="1320.82" y1="573.55" x2="1320.82" y2="496.36" gradientUnits="userSpaceOnUse"><stop offset="0.09" stop-color="#f05364"/><stop offset="0.72" stop-color="#fdb93c"/><stop offset="0.98" stop-color="#f9d18a"/></linearGradient><linearGradient id="linear-gradient-27" x1="951.1" y1="574.98" x2="964.75" y2="574.98" gradientTransform="matrix(-1, 0, 0, 1, 1854.64, 0)" xlink:href="#linear-gradient-9"/><linearGradient id="linear-gradient-28" x1="947.93" y1="554.3" x2="953.4" y2="554.3" gradientTransform="matrix(-1, 0, 0, 1, 1854.64, 0)" xlink:href="#linear-gradient-9"/><linearGradient id="linear-gradient-29" x1="-1218.95" y1="2034.09" x2="-1215.3" y2="2034.09" gradientTransform="translate(-439.77 2029.34) rotate(-162.85)" xlink:href="#linear-gradient-26"/><linearGradient id="linear-gradient-30" x1="775.71" y1="-20.66" x2="791.7" y2="-20.66" gradientTransform="translate(788.32 1057.37) rotate(-45)" xlink:href="#linear-gradient-26"/><linearGradient id="linear-gradient-31" x1="1310.3" y1="483.18" x2="1316.71" y2="483.18" xlink:href="#linear-gradient-26"/><radialGradient id="radial-gradient-3" cx="1331.23" cy="370.29" r="4.53" gradientUnits="userSpaceOnUse"><stop offset="0.06" stop-color="#7dccc6"/><stop offset="0.37" stop-color="#84cfc9"/><stop offset="0.77" stop-color="#b4e0dc"/><stop offset="1" stop-color="#fff"/></radialGradient><radialGradient id="radial-gradient-4" cx="1326.51" cy="408.8" r="7.47" xlink:href="#radial-gradient-3"/><radialGradient id="radial-gradient-5" cx="1313.67" cy="384.52" r="6.74" xlink:href="#radial-gradient-3"/><radialGradient id="radial-gradient-6" cx="1318.1" cy="352.47" r="3.7" xlink:href="#radial-gradient-3"/><radialGradient id="radial-gradient-7" cx="938.68" cy="195.38" r="30.01" xlink:href="#radial-gradient-3"/><radialGradient id="radial-gradient-8" cx="815.48" cy="27.63" r="53.92" xlink:href="#radial-gradient-3"/><radialGradient id="radial-gradient-9" cx="962.56" cy="102.66" r="13.62" xlink:href="#radial-gradient-3"/><radialGradient id="radial-gradient-10" cx="1162.89" cy="713.07" r="13.62" gradientTransform="matrix(1, 0, 0, -1, 0, 866.21)" xlink:href="#radial-gradient-3"/></defs><title>home-bg</title><rect class="cls-2" x="-1.49" y="-0.99" width="1428.26" height="805.85"/><path class="cls-3" d="M1020.07,235.71c-1.5,0-15.57.32-23.73,10.69-7,8.91-6.72,21.52,1,31.17-8,5.33-11.9,14.4-9.89,23.16,2,8.92,9.84,15.94,19.77,17.81,1.59,14.5,13.29,26.41,28.67,29.39,14.13,2.74,29-2.52,37.57-13.36a38.55,38.55,0,0,0,24.72,7.12,37.54,37.54,0,0,0,19.77-7.12c9.54,7.53,23.53,7.15,31.64,0a19.38,19.38,0,0,0,4-24c12.18-1.45,20.77-11.2,19.77-21.37-0.88-9-9.09-16.62-19.77-17.81,0.55-1.52,3.56-10.22-1-16.92-5.4-7.95-19.8-10.65-32.71-3a26.74,26.74,0,0,0-.9-17.52c-5-12-17.16-15.58-18.79-16,1.15-8.6-4.13-16.71-12.5-19.76-9.77-3.57-21.89.43-27,9.64-22-4.36-39.87,2.7-43.52,12.79C1016.55,222.11,1014.93,227.57,1020.07,235.71Z"/><path class="cls-4" d="M1427,806.84H-1.23V550A76.72,76.72,0,0,1,14.56,539C44.14,523.29,74,531,78.93,532.38a31.09,31.09,0,0,1,22-18.16c16.58-3.65,28.64,6.78,29.28,7.35a149.94,149.94,0,0,1,91.67-43.72,153.7,153.7,0,0,1,90.75,19.38c12-5.78,32.67-13.33,57.56-10.44,42.57,4.94,79.57,38.32,96.56,85.22a105.67,105.67,0,0,1,108.21-46.39A34.73,34.73,0,0,1,579.46,504c7.6-12.61,23.63-19.85,41.23-19,13.74-23.18,39.44-36.56,64.88-34,24.83,2.55,39.64,19.33,42.9,23.21,2.53-1.42,42-22.63,81.13-3.55a78.58,78.58,0,0,1,38.22,41.4,54.22,54.22,0,0,1,27.28,12.33,44.57,44.57,0,0,1,14.72,25.14,86.49,86.49,0,0,1,16.72-11,91.26,91.26,0,0,1,30.94-9.15,134.89,134.89,0,0,1,60.09-52.76c41.67-18.75,80.17-11.63,91.48-9.13,3.18-5.17,13.66-20.59,33.06-25.23,26.1-6.24,58.64,9.32,74,40.1a80.72,80.72,0,0,1,29-3.8,79.66,79.66,0,0,1,41.89,14.62,59.44,59.44,0,0,1,15.3-16.2c29.38-21.14,68.51-8.07,71.27-7.1a82.93,82.93,0,0,1,41.58,32.76c2.68,0.26,18.38,2,31.92,12.09V806.84Z"/><path class="cls-5" d="M1025.73,236.34c-1.46,0-15.18.31-23.13,10.22-6.83,8.52-6.55,20.59,1,29.82-7.83,5.1-11.6,13.77-9.64,22.15,2,8.53,9.59,15.24,19.28,17,1.55,13.87,13,25.26,28,28.12,13.78,2.62,28.24-2.41,36.63-12.78a38.06,38.06,0,0,0,24.1,6.82,37,37,0,0,0,19.28-6.82c9.3,7.2,22.93,6.84,30.84,0a18.29,18.29,0,0,0,3.86-23c11.88-1.39,20.25-10.71,19.28-20.45-0.86-8.61-8.86-15.9-19.28-17,0.63-1.58,3.59-9.48-1-16.19-5.41-8-19.46-11.39-32.77-6a20.52,20.52,0,0,0,0-13.63c-4.07-11.23-16.92-15-18.31-15.34a20.36,20.36,0,0,0-12.53-22.15c-10.67-4.45-24.73-.29-30.84,10.22-19-2.68-34.47,4.65-37.59,14.48C1022.36,223.36,1020.94,228.81,1025.73,236.34Z"/><path class="cls-6" d="M1207.61,642.86V160.67c1.12-3.54,6.44-6.11,12.52-6.07s11.16,2.59,12.27,6.07V642.86h-24.78Z"/><path class="cls-7" d="M1068,301.21c-0.54-.27-4.18-2.18-4.85-6.13a8.77,8.77,0,0,1,1.15-5.72l0.09-.15c2.05-3.32,19.69-2.71,22.2-2.63,14.72,0.47,19.39-1,21.91,2.46a8.18,8.18,0,0,1,.92,7,8.47,8.47,0,0,1-5.35,5.13v57.68a15.09,15.09,0,0,0,2.41,8.23l51.81,79.34c5.47,8.37,0,20-9.44,20H1024c-9.2,0-14.6-11.3-9.33-19.53l51.24-80a16.17,16.17,0,0,0,2.51-8.83Z"/><path class="cls-8" d="M1207.61,642.86V160.67a11.09,11.09,0,0,1,3.25-3.69,14.36,14.36,0,0,1,9.36-2.4q-0.11,244.14-.21,488.28h-12.39Z"/><rect class="cls-6" x="1198.7" y="317.63" width="39.59" height="30.3"/><rect class="cls-9" x="1202.13" y="321.1" width="32.72" height="23.35"/><rect class="cls-6" x="994.84" y="641.3" width="284.9" height="17.46"/><path class="cls-7" d="M1066.6,582.78h45a6.24,6.24,0,0,1,1.17.11,29.06,29.06,0,0,1,14.55,7.43,27.64,27.64,0,0,1,6.92,10.64,20.51,20.51,0,0,1,1.19,7v27.6a6,6,0,0,1-6.05,5.88h-81.13a5.16,5.16,0,0,1-5.23-5.09V608.61a24.06,24.06,0,0,1,4.49-14.2,28.75,28.75,0,0,1,2.57-3.06,30.53,30.53,0,0,1,15.18-8.42A6.14,6.14,0,0,1,1066.6,582.78Z"/><path class="cls-10" d="M1066.6,582.78V571.51a3.54,3.54,0,0,1,3.58-3.48h38.9a3.4,3.4,0,0,1,3.45,3.35v11.51Z"/><path class="cls-11" d="M1046.07,606.15h85.81v27a5.4,5.4,0,0,1-5.42,5.37h-75.11a5.25,5.25,0,0,1-5.27-5.22V606.15Z"/><path class="cls-12" d="M1102.17,552.34a17,17,0,0,1-13.36,6.34,16.77,16.77,0,0,1-12.43-6.34c-0.72-.85-6.74-8.1-4.34-17.37a20,20,0,0,1,7.86-11.32,5.32,5.32,0,0,0,1.85,6.05,5,5,0,0,0,5.69-1.06c3.21-3.82-5-11.84-1.63-18.69a9.55,9.55,0,0,1,3.39-3.6,16.34,16.34,0,0,0,1.22,5.53c1.85,4.33,4.89,6.2,7.6,8.72,0.59,0.54,8,7.44,9.27,15.52C1107.7,538,1108.23,544.34,1102.17,552.34Z"/><path class="cls-13" d="M1098.46,550.74a5,5,0,0,0,.43-2.94c-0.23-1.27-.87-1.46-1.08-2.63s0.41-2,.87-3.57a10.5,10.5,0,0,0,.22-4.52,9.4,9.4,0,0,1-1.62,2.94,9.78,9.78,0,0,1-3.35,2.63,6.14,6.14,0,0,1,.22-2.84c0.56-1.69,1.69-2.4,2.59-3.47a9.84,9.84,0,0,0,2-6.52c-0.21-5.21-6-8.43-6.52-8.73,1.83,3.11,1.73,5.17,1.3,6.47-1.73,5.31-10.86,4.23-14.77,11.12a10.79,10.79,0,0,0-1.3,7.18c0.94,4.9,5.45,7.43,6.32,7.89a10.51,10.51,0,0,1-1.68-9c1.57-5.24,6.79-6.86,7.17-7a8.74,8.74,0,0,0,.28,5.41c1,2.47,2.86,3,3.62,5.29,0.41,1.22.56,3.09-.75,5.84C1092.63,554.28,1097,553.86,1098.46,550.74Z"/><path class="cls-14" d="M1076.27,560.76h25.62a1.39,1.39,0,0,1,1.39,1.39V568a0,0,0,0,1,0,0h-28.43a0,0,0,0,1,0,0v-5.85A1.41,1.41,0,0,1,1076.27,560.76Z"/><path class="cls-15" d="M1048.71,606.15V637a1.55,1.55,0,0,0,1.57,1.53h3.7V606.15h-5.27Z"/><g class="cls-16"><path class="cls-17" d="M1068,301.21c-0.54-.27-4.18-2.18-4.85-6.13a8.82,8.82,0,0,1,1.24-5.87c2.21-3.61,6.69-4,22.13-4,15.83,0,19.94.44,22,3.86a9.25,9.25,0,0,1,.92,7,8.47,8.47,0,0,1-5.35,5.13v57.68a15.09,15.09,0,0,0,2.41,8.23l51.81,79.34c5.47,8.37,0,20-9.44,20H1024c-9.2,0-14.6-11.3-9.33-19.53l51.24-80a16.17,16.17,0,0,0,2.51-8.83Z"/></g><path class="cls-15" d="M1048.71,602.88H1054a22.69,22.69,0,0,1,5.56-9.12,24,24,0,0,1,12.14-6.44,23.11,23.11,0,0,0-15,4.29A21.78,21.78,0,0,0,1048.71,602.88Z"/><rect class="cls-18" x="-25.19" y="654.28" width="1424.6" height="149.65" transform="translate(1374.22 1458.2) rotate(-180)"/><rect class="cls-19" x="1107.94" y="328.37" width="90.76" height="9.67"/><rect class="cls-6" x="1200.42" y="451.29" width="39.59" height="30.3"/><rect class="cls-9" x="1203.86" y="454.77" width="32.72" height="23.35"/><rect class="cls-6" x="0.66" y="654.28" width="1424.3" height="4.74"/><rect class="cls-20" x="1240.01" y="461.61" width="59.33" height="9.67"/><path class="cls-21" d="M1130.5,602.88h-5.27a22.69,22.69,0,0,0-5.56-9.12,24,24,0,0,0-12.14-6.44,23.11,23.11,0,0,1,15,4.29A21.78,21.78,0,0,1,1130.5,602.88Z"/><path class="cls-8" d="M1059.34,394a41.46,41.46,0,0,1,8.14,1.7c7.13,2.26,10.29,5.43,14.57,8,10.4,6.35,26,8.61,35.45,2.16a5.19,5.19,0,0,0,2.22-1.79c1-1.79.07-4-.06-4.29-0.37-.87-3.06-4.2-9.85-4.91-12.23-1.28-30.26,6.74-34.66,4.2a43,43,0,0,0-3.87-2s-1.43-.68-2.83-1.19A33.25,33.25,0,0,0,1059.34,394Z"/><path class="cls-22" d="M1056.44,392l-34,56.5c-3.7,5.45-.11,13.15,6.14,13.15h117.92a6.74,6.74,0,0,0,6.17-4.21c0.79-1.8.75-4.23-.84-7.84-4.87-11.07-30.14-46.87-32.12-49.67a4.48,4.48,0,0,1,.41,1.58,4.54,4.54,0,0,1-.38,2.15,5.93,5.93,0,0,1-2.53,2.62,20.61,20.61,0,0,1-6.43,2.64,40.19,40.19,0,0,1-13.35.55,51.7,51.7,0,0,1-14-5c-6-3.2-8.42-5.34-14.59-8.21A61,61,0,0,0,1056.44,392Z"/><ellipse class="cls-23" cx="1093.26" cy="433.73" rx="3.94" ry="3.83"/><ellipse class="cls-24" cx="1085.53" cy="408.87" rx="8.25" ry="8.02"/><ellipse class="cls-24" cx="1104.55" cy="413.82" rx="3.15" ry="3.06"/><path class="cls-25" d="M1089,309.57a1.09,1.09,0,0,1,1.51.08,1,1,0,0,1-.08,1.47A1.09,1.09,0,0,1,1089,311,1,1,0,0,1,1089,309.57Z"/><path class="cls-26" d="M1119.68,399.89l32.84,50.17a8.56,8.56,0,0,1-.29,8.27,7.32,7.32,0,0,1-5,3.28H1035.48a0.17,0.17,0,0,1-.13-0.26l17.09-27.82c2.45-3.94,6.49-9,12.58-10.9,9.8-3.08,14.79,5.13,28,4.28l1.16-.09c1.31-.12,13.11-1.48,21.12-11.59,0,0,4.38-5.54,4.86-11a12.1,12.1,0,0,0-.13-3A10.18,10.18,0,0,0,1119.68,399.89Z"/><path class="cls-27" d="M1089.78,355.37a1.56,1.56,0,0,1-1.95,1,1.5,1.5,0,0,1-1-1.89,1.56,1.56,0,0,1,1.95-1A1.5,1.5,0,0,1,1089.78,355.37Z"/><ellipse class="cls-23" cx="1090.8" cy="436.59" rx="3.15" ry="3.06"/><rect class="cls-28" x="1088.88" y="303.18" width="0.88" height="160.4"/><ellipse class="cls-29" cx="1080.48" cy="381.03" rx="4.71" ry="4.58"/><ellipse class="cls-30" cx="1100.52" cy="382.72" rx="6.82" ry="6.63"/><ellipse class="cls-31" cx="1091.57" cy="366.3" rx="2.74" ry="2.66"/><rect class="cls-28" x="1074.29" y="301.21" width="3.53" height="160.4"/><rect class="cls-28" x="1079.86" y="301.21" width="1.76" height="160.4"/><path class="cls-28" d="M1101.33,379.17l44.24,70.32a4.75,4.75,0,0,1-4.13,7.23l-28.18.24c4.82-1.43,11.86-4.37,14.72-10.58,3.35-7.27-.92-14.91-10.88-34.85C1113.72,404.77,1108.19,393.58,1101.33,379.17Z"/><polygon class="cls-32" points="1067.96 301.21 1104.03 301.21 1104.03 305.15 1068 305.15 1067.96 301.21"/><path class="cls-33" d="M1037.72,433.53l-11.46,18.2a4.75,4.75,0,0,0,4.13,7.23l28.18,0.24c-0.77,0-11.86.09-18.1-8.92A20.54,20.54,0,0,1,1037.72,433.53Z"/><rect class="cls-6" x="1062.93" y="321.1" width="45.02" height="24.89"/><rect class="cls-8" x="1089.28" y="322.97" width="9.63" height="23.02"/><ellipse class="cls-23" cx="1110.05" cy="444.32" rx="7.33" ry="7.12"/><path class="cls-34" d="M1092.22,314.83a1.59,1.59,0,0,1,2.2.12,1.48,1.48,0,0,1-.12,2.14,1.59,1.59,0,0,1-2.2-.12A1.48,1.48,0,0,1,1092.22,314.83Z"/><path class="cls-35" d="M1117.29,221.78a16.41,16.41,0,0,1,10.27,7.28,15.5,15.5,0,0,1,1.62,12,25.93,25.93,0,0,1,25.32,4.13c8.48,7.09,8.56,17.26,8.55,18.76a18.36,18.36,0,0,1,13.32,4.08,17,17,0,0,1,5.67,10,19.24,19.24,0,0,0,3.9-4.4,20.48,20.48,0,0,0,2-17.46c-2.79-7.95-11-13.63-20.71-14.21-0.08-1.43-1.13-15.93-13.72-23.59C1142.69,211.86,1128,213.09,1117.29,221.78Z"/><path class="cls-35" d="M1109,215.33c0.51-1,5.28-11-.16-20.38-5.18-8.9-16.27-11.48-24.58-10a26,26,0,0,0-16.12,10.28c1.13-.81,11.09-7.71,22.84-4.19C1101.26,194.09,1108.63,203.87,1109,215.33Z"/><path class="cls-36" d="M1140.46,276.11c8.7,2.62,13.84,10.46,12.63,17.65-1.29,7.66-9.21,11.14-9.82,11.39,0,1.19-.51,9.31-7.48,14.52a20.58,20.58,0,0,1-21.51,1.43c0.47,0.11,12,2.51,19.64-5.52a19.55,19.55,0,0,0,5.14-14.37,14.3,14.3,0,0,0,7.48-7C1149.05,288.48,1146.73,281,1140.46,276.11Z"/><path class="cls-37" d="M1025.19,279.92c-8.63-6.11-11.41-16.84-7.25-24.79,3.06-5.86,9.58-9.61,16.83-10a18.45,18.45,0,0,1,9.82-20,19.54,19.54,0,0,1,23,4.09,24.55,24.55,0,0,0-7.85-2.11c-2.18-.22-10.24-0.91-15.65,4.32-4.63,4.47-5.85,11.84-3.26,18.7-0.56-.09-10.9-1.64-17.1,5.33C1018.14,261.78,1018.33,272.4,1025.19,279.92Z"/><path class="cls-36" d="M1081,232.66a2.05,2.05,0,0,1,2.84.15,1.92,1.92,0,0,1-.16,2.76,2.05,2.05,0,0,1-2.84-.15A1.92,1.92,0,0,1,1081,232.66Z"/><path class="cls-36" d="M1064.64,245.72a3,3,0,0,1,4.12.22,2.78,2.78,0,0,1-.23,4,3,3,0,0,1-4.12-.22A2.78,2.78,0,0,1,1064.64,245.72Z"/><path class="cls-38" d="M1079.14,204.67a8.94,8.94,0,0,1,12.37.66,8.35,8.35,0,0,1-.68,12,8.94,8.94,0,0,1-12.37-.66A8.35,8.35,0,0,1,1079.14,204.67Z"/><path class="cls-39" d="M1083.36,607.5H1065a9.7,9.7,0,0,1,9.19-5.81,10.07,10.07,0,0,1,8.51,4.45A7.7,7.7,0,0,1,1083.36,607.5Z"/><path class="cls-40" d="M1100,607.5h-23.36a7.59,7.59,0,0,1,.36-1.36,11.85,11.85,0,0,1,22.46-.48A7.16,7.16,0,0,1,1100,607.5Z"/><path class="cls-41" d="M1107,607.56h-12.77a5.51,5.51,0,0,1,1.81-1.85,7.9,7.9,0,0,1,4.57-1.41,7.35,7.35,0,0,1,6.16,2.95A0.79,0.79,0,0,1,1107,607.56Z"/><path class="cls-42" d="M1119.66,607.5h-16.53a0.39,0.39,0,0,1,.14-0.31A8.77,8.77,0,0,1,1119.66,607.5Z"/><path class="cls-43" d="M-0.64,539.78L0.22,803.92H1426.77V635.05L1426.33,598c-11.28-1-46.18-2.61-80.54,19.79a126.38,126.38,0,0,0-43.36,48.51c-43.63-19.83-91.55-16.9-124,9-19.54,15.58-28.54,35.53-32.7,47.72-4-2.35-21.52-12.11-43.06-5.67-16.23,4.85-25.81,16.24-29.28,20.79-0.8-2.63-6.62-20.77-24.11-28.35-21.61-9.38-40.51,6.26-41.38,7a106.14,106.14,0,0,0-40.06-28.29c-38.62-15.33-73.84-2.17-82.59,1.39-9.33-10.63-56.84-62.55-135.51-67.43-59.94-3.72-103.73,22-118.66,31.72-6.95-4.11-33.08-18.43-63.59-10.31A75.07,75.07,0,0,0,543.69,655C542,652,509.3,596,442.91,593.64c-66.55-2.32-103.15,51.58-105,54.4-5.8-5.82-38.8-37.84-90.16-36.84-43,.84-71.51,24.29-79.18,31.05a125.6,125.6,0,0,0-57.3-34.62A124.7,124.7,0,0,0,56.8,605a67.8,67.8,0,0,0-15.53-41.92C25.44,544.12,4.46,540.51-.64,539.78Z"/><path class="cls-44" d="M1094.1,784.63c0.87-2.31,10.47-26.62,36.48-33.26,20.92-5.34,37.65,4.52,40.78,6.44,3.21-10.36,11.73-32.3,33.26-48.29,29.51-21.9,71.4-23.63,108.38-5.37,1.15-2.79,10.43-24.22,34.34-31.12,28.37-8.18,50.45,11.88,51.51,12.88-3.36-1.63-23.21-10.84-46.14-2.15-24.8,9.41-33.21,32.18-34.34,35.41-4.17-2.82-38.71-25.36-80.48-11.8-47.7,15.48-60.44,63.6-61.16,66.53-2.63-2.23-19.65-16.17-44-12.88C1108.75,764.28,1096.1,781.77,1094.1,784.63Z"/><ellipse class="cls-45" cx="900.84" cy="664.96" rx="37.84" ry="3.41"/><path class="cls-46" d="M-0.3,696.12a58.7,58.7,0,0,1,36.85,1.35c24.8,9.4,33.2,32.18,34.33,35.41,4.17-2.83,38.71-25.36,80.48-11.81,47.7,15.48,60.44,63.6,61.16,66.53,2.63-2.23,19.65-16.17,44-12.88,24,3.25,36.62,20.74,38.63,23.61-0.87-2.31-10.47-26.62-36.49-33.26-20.91-5.34-37.65,4.51-40.77,6.43-3.22-10.35-11.73-32.3-33.27-48.28-29.51-21.9-71.39-23.64-108.37-5.37-1.15-2.78-10.44-24.22-34.34-31.12-17.73-5.11-33,.81-42.23,6.21Z"/><path class="cls-47" d="M267.63,687.09c2.42-2.3,22.61-20.77,51.4-16.4,32.89,5,46.41,35.12,47.2,37,1.48-1.74,11.12-12.7,27.41-13.17,16-.46,26.2,9.63,27.83,11.29-0.82-1.42-9.72-16.3-27.47-17.84-14.26-1.24-24.16,7-26,8.6-2.92-6.2-10.77-20.52-27-28C318.37,658,288.71,665.19,267.63,687.09Z"/><rect class="cls-48" x="1062.93" y="286.69" width="46.92" height="14.52" rx="5.02" ry="5.02"/><rect class="cls-48" x="878.4" y="495.06" width="46.16" height="8.49" rx="2.56" ry="2.56" transform="translate(1802.95 998.61) rotate(-180)"/><path class="cls-49" d="M885.46,565a45.75,45.75,0,0,1,32,0V503.55h-32V565Z"/><circle class="cls-49" cx="901.48" cy="613.8" r="51.75"/><path class="cls-50" d="M863.91,643c14.19,18.43,36.35,18.52,37.93,18.5,0.69,0,1.36,0,2-.07l0.88-.06q1.41-.11,2.76-0.3c0.59-.08,1.18-0.17,1.76-0.28s1.38-.26,2-0.41c1.21-.28,2.39-0.61,3.53-1A50.44,50.44,0,0,0,938.52,643c15.35-19.8,8.18-43.13,7.52-45.14-8.76,7.84-16.32,9.91-21.44,10.43a28.68,28.68,0,0,1-9.75-.66c-1.19-.27-2.36-0.61-3.53-1-0.68-.23-1.37-0.48-2-0.73l-1.76-.7q-1.36-.55-2.76-1.17l-0.88-.39c-7.41-3.26-15.88-7.36-28.5-9.44A93.47,93.47,0,0,0,858.5,593C851.1,609.79,853.12,629,863.91,643Z"/><path class="cls-8" d="M946,597.91a36.18,36.18,0,0,1-14.43,9,37.63,37.63,0,0,1-15.15,1.49c-16.55-1.34-19.37-9.35-37.43-13.21-11.19-2.39-20.6-1.53-20.59-2s5.29-.7,10.23-0.46a73.11,73.11,0,0,1,13.41,2c7.16,1.72,8,2.78,13.78,3.73a43.32,43.32,0,0,0,9.13.75c7.42-.27,8.93-2.58,18.41-3.79a42.93,42.93,0,0,1,8.46-.48A49.66,49.66,0,0,1,946,597.91Z"/><rect class="cls-48" x="1294.45" y="421.09" width="52.71" height="17.34" rx="4.7" ry="4.7"/><path class="cls-17" d="M1339.95,556.1c0,7.54-3.57,14.68-9.63,18.39a17.84,17.84,0,0,1-18.69.1c-6.15-3.68-9.79-10.89-9.79-18.5V438.43h38.11V556.1Z"/><path class="cls-51" d="M1335.93,496.36c-4.29,3-7.7,3.5-10.12,3.34-6.12-.39-9.15-5.29-14.61-4.57a10.15,10.15,0,0,0-5.5,2.74v9.52l30.19,4.19Z"/><path class="cls-52" d="M1305.71,507.39a9.61,9.61,0,0,1,4.09-2c3.31-.71,4.94.78,9.31,0.84,1.7,0,5.69.08,8.49-1.87,2.13-1.48,1.79-2.9,4.62-5.43a19.08,19.08,0,0,1,3.71-2.57q-0.06,32-.13,64c0.15,7.44-7.19,13.44-15.59,13.18-8-.24-14.65-6.1-14.5-13.18v-53Z"/><ellipse class="cls-53" cx="1318.12" cy="517.46" rx="7.94" ry="8.02"/><ellipse class="cls-24" cx="910.38" cy="598.57" rx="8.25" ry="8.02"/><ellipse class="cls-24" cx="893.37" cy="611.03" rx="3.15" ry="3.06"/><ellipse class="cls-23" cx="903.98" cy="630.74" rx="3.15" ry="3.06"/><ellipse class="cls-54" cx="896.72" cy="574.98" rx="6.82" ry="6.63"/><ellipse class="cls-55" cx="903.98" cy="554.3" rx="2.74" ry="2.66"/><ellipse class="cls-23" cx="884.72" cy="638.47" rx="7.33" ry="7.12"/><ellipse class="cls-53" cx="1331.63" cy="528.07" rx="4.49" ry="4.54"/><path class="cls-56" d="M1324.91,445.28a1.82,1.82,0,0,1-2.28,1.21,1.84,1.84,0,0,1-1.2-2.3,1.82,1.82,0,0,1,2.28-1.21A1.84,1.84,0,0,1,1324.91,445.28Z"/><ellipse class="cls-23" cx="1315.06" cy="545.11" rx="4.49" ry="4.54"/><path class="cls-57" d="M1322.34,494.36a8.26,8.26,0,0,1,.15-11.36,7.53,7.53,0,0,1,10.93-.16,8.26,8.26,0,0,1-.15,11.36A7.53,7.53,0,0,1,1322.34,494.36Z"/><ellipse class="cls-58" cx="1313.51" cy="483.18" rx="3.2" ry="3.23"/><path class="cls-23" d="M1334.22,560.49a8.17,8.17,0,0,1-9.13,7.2,8.36,8.36,0,0,1-7.19-9.28,8.17,8.17,0,0,1,9.13-7.2A8.36,8.36,0,0,1,1334.22,560.49Z"/><path class="cls-28" d="M1309.51,421.09h5.28V549.5a33.87,33.87,0,0,0,1.61,9.61,35.56,35.56,0,0,0,6.5,11.79,20.83,20.83,0,0,1-9.26-5.94,20.49,20.49,0,0,1-4.75-15.66Q1309.2,485.2,1309.51,421.09Z"/><rect class="cls-6" x="1297.74" y="451.13" width="45.02" height="24.89"/><rect class="cls-8" x="1323.1" y="451.29" width="9.63" height="24.73"/><rect class="cls-8" x="1335.79" y="451.21" width="2.41" height="24.73"/><path class="cls-28" d="M892.74,570.18c-19.48,6.09-32.5,24.17-31.94,43.65,0.62,21.58,17.77,40.25,40.39,42.82A47.6,47.6,0,0,1,892.74,570.18Z"/><path class="cls-59" d="M911.32,503.39V660.48c1.21-.27,2.39-0.58,3.53-0.91V503.39h-3.53Z"/><path class="cls-59" d="M907.51,503.39V661.14c0.59-.08,1.18-0.16,1.76-0.27V503.39h-1.76Z"/><path class="cls-28" d="M928.69,581.46c1.71,1.39,16.26,13.66,15.57,33.7a42,42,0,0,1-22.61,35.47A60.48,60.48,0,0,0,928.69,581.46Z"/><path class="cls-60" d="M1335.53,371.63a4.5,4.5,0,0,1-5.63,3,4.56,4.56,0,0,1-3-5.69,4.5,4.5,0,0,1,5.63-3A4.56,4.56,0,0,1,1335.53,371.63Z"/><path class="cls-61" d="M1321.26,414.26a7.83,7.83,0,0,1,.15-10.76,7.13,7.13,0,0,1,10.36-.15,7.83,7.83,0,0,1-.15,10.76A7.13,7.13,0,0,1,1321.26,414.26Z"/><ellipse class="cls-62" cx="1313.67" cy="384.52" rx="6.7" ry="6.77"/><path class="cls-63" d="M1321.61,353.57A3.67,3.67,0,0,1,1317,356a3.72,3.72,0,0,1-2.43-4.65,3.67,3.67,0,0,1,4.6-2.45A3.72,3.72,0,0,1,1321.61,353.57Z"/><path class="cls-64" d="M917.58,217.3c-11.33-11.77-11.06-31.13.59-43.24s30.28-12.38,41.61-.61,11.06,31.13-.59,43.24S928.91,229.07,917.58,217.3Z"/><path class="cls-65" d="M861.14,46.05c-25.94,27-67.41,27.57-92.63,1.37C753.25,31.55,747.43,9.5,751-11.41H880.52A71.21,71.21,0,0,1,861.14,46.05Z"/><path class="cls-66" d="M953,112.61A14.27,14.27,0,0,1,953.25,93a13,13,0,0,1,18.89-.28,14.27,14.27,0,0,1-.27,19.62A13,13,0,0,1,953,112.61Z"/><path class="cls-67" d="M1153.32,143.19a14.27,14.27,0,0,0,.27,19.62,13,13,0,0,0,18.89.28,14.27,14.27,0,0,0-.27-19.62A13,13,0,0,0,1153.32,143.19Z"/></svg>