<svg id="Layer_1" data-name="Layer 1" xmlns="http://www.w3.org/2000/svg" xmlns:xlink="http://www.w3.org/1999/xlink" viewBox="0 0 221.6 248.84"><defs><style>.cls-1{stroke:#fff;stroke-miterlimit:10;stroke-width:5px;fill:url(#linear-gradient);}.cls-2{fill:#fff;}</style><linearGradient id="linear-gradient" x1="110.8" y1="2.5" x2="110.8" y2="246.34" gradientUnits="userSpaceOnUse"><stop offset="0.25" stop-color="#e68163"/><stop offset="0.72" stop-color="#e17a75"/><stop offset="1" stop-color="#da728b"/></linearGradient></defs><title>hydrogen</title><rect class="cls-1" x="2.5" y="2.5" width="216.6" height="243.84"/><path class="cls-2" d="M25.91,22.12H25.82l-5.52,2.79-1-4.32L26.65,17h4.78V47.14H25.91v-25Z" transform="translate(2.5 2.5)"/><path class="cls-2" d="M43.49,203.23v6.48h6.84v-6.48h3V219.4h-3v-7.13H43.49v7.13h-3V203.23h3Z" transform="translate(2.5 2.5)"/><path class="cls-2" d="M62,219.4v-6.75l-5.11-9.43h3.36l1.94,4.15c0.55,1.2,1,2.11,1.39,3.22h0c0.41-1,.87-2,1.42-3.22L67,203.23h3.34L65,212.59v6.82H62Z" transform="translate(2.5 2.5)"/><path class="cls-2" d="M73.81,203.44a29.82,29.82,0,0,1,4.7-.34c3,0,5.11.62,6.6,1.87a7.24,7.24,0,0,1,2.52,6,8.38,8.38,0,0,1-2.52,6.43c-1.61,1.46-4.18,2.21-7.32,2.21a32.43,32.43,0,0,1-4-.22V203.44Zm3,13.71a11,11,0,0,0,1.63.07c3.84,0,6.12-2.09,6.12-6.19,0-3.58-2-5.62-5.74-5.62a9.4,9.4,0,0,0-2,.17v11.57Z" transform="translate(2.5 2.5)"/><path class="cls-2" d="M92.19,203.44a28.08,28.08,0,0,1,4.46-.34c2.33,0,3.91.38,5,1.3a4.09,4.09,0,0,1,1.39,3.24,4.31,4.31,0,0,1-2.93,4.06v0.07c1.15,0.43,1.85,1.56,2.26,3.12a32.3,32.3,0,0,0,1.27,4.51h-3a22.87,22.87,0,0,1-1.08-3.82c-0.46-2.11-1.22-2.78-2.9-2.83H95.12v6.65H92.19v-16Zm2.93,7.15h1.75c2,0,3.24-1.06,3.24-2.67,0-1.78-1.25-2.59-3.17-2.59a8.56,8.56,0,0,0-1.82.14v5.11Z" transform="translate(2.5 2.5)"/><path class="cls-2" d="M122.19,211.15c0,5.42-3.29,8.52-7.75,8.52s-7.44-3.48-7.44-8.23c0-5,3.12-8.47,7.68-8.47C119.4,203,122.19,206.54,122.19,211.15Zm-12.07.24c0,3.29,1.66,5.9,4.49,5.9s4.46-2.64,4.46-6c0-3-1.51-5.93-4.46-5.93S110.11,208.05,110.11,211.39Z" transform="translate(2.5 2.5)"/><path class="cls-2" d="M139.68,218.66a16,16,0,0,1-5.21.91,8.72,8.72,0,0,1-6.34-2.16,8,8,0,0,1-2.26-6c0-5.11,3.65-8.4,9-8.4a10.73,10.73,0,0,1,4.3.77l-0.65,2.38a8.71,8.71,0,0,0-3.67-.7c-3.46,0-5.88,2-5.88,5.81s2.26,5.86,5.62,5.86a5.66,5.66,0,0,0,2.23-.34v-4H134v-2.33h5.71v8.18Z" transform="translate(2.5 2.5)"/><path class="cls-2" d="M153.74,212.23h-6.1V217h6.82v2.42h-9.77V203.23h9.41v2.42h-6.46v4.18h6.1v2.4Z" transform="translate(2.5 2.5)"/><path class="cls-2" d="M159,219.4V203.23h3.36l4.18,6.94a44.57,44.57,0,0,1,2.76,5.42h0c-0.19-2.16-.26-4.25-0.26-6.72v-5.64h2.74V219.4h-3l-4.22-7.1a56.31,56.31,0,0,1-2.9-5.59l-0.07,0c0.12,2.09.14,4.22,0.14,6.89v5.79H159Z" transform="translate(2.5 2.5)"/><path class="cls-2" d="M88.5,70.81v34.35H121.8V70.81H142v89.4H121.8V122.81H88.5v37.41H68.21V70.81H88.5Z" transform="translate(2.5 2.5)"/></svg>