<?xml version="1.0" encoding="utf-8"?>
<!-- Generator: Adobe Illustrator 19.2.1, SVG Export Plug-In . SVG Version: 6.00 Build 0)  -->
<svg version="1.1" id="Layer_1" xmlns="http://www.w3.org/2000/svg" xmlns:xlink="http://www.w3.org/1999/xlink" x="0px" y="0px"
	 viewBox="0 0 221.6 248.8" style="enable-background:new 0 0 221.6 248.8;" xml:space="preserve">
<style type="text/css">
	.st0{fill:url(#SVGID_1_);stroke:#ECBE9D;stroke-width:5;stroke-miterlimit:10;}
	.st1{opacity:0.2;fill:#FFFFFF;enable-background:new    ;}
	.st2{fill:#7A2929;}
	.st3{fill:#9E4C4C;}
	.st4{fill:#F4F2F2;}
	.st5{opacity:0.47;fill:url(#SVGID_2_);enable-background:new    ;}
	.st6{opacity:0.21;fill:#FFFFFF;enable-background:new    ;}
	.st7{opacity:0.32;fill:#FFFFFF;enable-background:new    ;}
	.st8{opacity:0.56;fill:#FFFFFF;enable-background:new    ;}
	.st9{opacity:0.34;fill:url(#SVGID_3_);enable-background:new    ;}
	.st10{opacity:0.33;fill:#F9F9F9;enable-background:new    ;}
	.st11{opacity:0.72;}
	.st12{opacity:0.96;fill:#9E4C4C;enable-background:new    ;}
	.st13{opacity:0.84;fill:#9E4C4C;enable-background:new    ;}
	.st14{opacity:0.69;fill:#FFFFFF;enable-background:new    ;}
	.st15{fill:#FFFFFF;}
	.st16{opacity:0.42;fill:#9E4C4C;enable-background:new    ;}
	.st17{opacity:0.34;fill:url(#SVGID_4_);enable-background:new    ;}
</style>
<title>hydrogen</title>
<linearGradient id="SVGID_1_" gradientUnits="userSpaceOnUse" x1="110.8" y1="247.39" x2="110.8" y2="3.55" gradientTransform="matrix(1 0 0 -1 0 249.89)">
	<stop  offset="0.25" style="stop-color:#E68063"/>
	<stop  offset="0.72" style="stop-color:#E07A75"/>
	<stop  offset="1" style="stop-color:#DA728A"/>
</linearGradient>
<rect x="2.5" y="2.5" class="st0" width="216.6" height="243.8"/>
<path class="st1" d="M5.3,230.5h104.6c-1.2-5.4-6.5-8.9-11.9-7.8c-1.7,0.4-3.2,1.1-4.5,2.2l0,0c-0.3-1.3-0.8-2.6-1.5-3.8
	c-0.6-0.9-1.3-1.8-2.1-2.5c-3.3-3-7.8-4.2-12.2-3.2c-0.8,0.2-1.6,0.4-2.4,0.6c-0.9-3.9-3.1-7.3-6.1-9.9c-2.8-2.4-6.3-3.8-10-4
	c-8.7-0.4-16.5,5.5-18.4,14.1c-5.5-4.3-13.4-3.5-17.9,1.9c-1.6,1.9-2.6,4.3-2.8,6.8c-2.8-2.2-6.4-2.9-9.8-1.9
	c-2.1,0.8-3.9,2.2-5.1,4.2L5.3,230.5L5.3,230.5L5.3,230.5z"/>
<path class="st2" d="M75.1,111l-2.6-3.7c-0.5-0.7-1.4-0.9-2.2-0.6l-8.7,4.3c-0.4,0.2-0.7,0.6-0.7,1.1v7L75.1,111z"/>
<path class="st3" d="M74,111.6l-2.5-3.4c-0.3-0.5-1-0.6-1.5-0.4l-6,3c-0.3,0.2-0.5,0.5-0.5,0.8l0.6,5.8L74,111.6z"/>
<path class="st4" d="M199.1,108c-0.7-2.1-1.7-4.2-2.9-6c-7.5-10.6-23-11-37.7-11.3c-17-0.2-33.9,2.3-50.2,7.5
	c-9.9,3-20.5,7.3-23.4,8.5c-2.2,0.9-6.5,2.7-11.9,5.3c-7.4,3.7-11.6,6.4-14.5,8.9c-2.2,1.9-4.4,4.1-4.4,4.1
	c-1.3,1.3-2.3,2.4-3.1,3.2c-0.7,1.6-1.6,4.5-0.4,6.7s3.8,2.7,4.8,2.9c108.6,23.6,142.2-27.6,142.2-27.6
	C198,109.8,198.5,109,199.1,108z"/>
<path class="st2" d="M198.7,103c-0.5-0.8-1-1.5-1.6-2.2c-6.1-7.3-14.9-9.1-18.6-9.9C150,85,110.8,97,110.8,97
	c-12.4,3.8-24.5,8.5-36.1,14.1c15.4-7.1,31.6-12.6,48.2-16.3c0,0,28.8-6.4,54.1-2.3c5,0.8,9.7,2.5,14,5.2c2.1,1.4,4,3,5.8,4.8
	L198.7,103z"/>
<path class="st2" d="M196.8,111.8l2.4,1.9c-0.7,1.6-1.5,3-2.4,4.5c-2.7,4-6.2,7.4-10.4,9.9c-6.9,4.4-14.4,8-22.3,10.5
	c-12.4,3.7-25.1,6.1-37.9,7.2c-16.1,1-32.3,0.5-48.3-1.6c-2.9-0.4-5.2-0.8-9.8-1.7c-6.2-1.2-8.9-2.1-11.6-3.4
	c-1.6-0.8-3.1-1.7-4.6-2.7c1.9,0.4,4.8,0.9,8.2,1.4c10,1.5,20.1,1.9,30.2,1.3c12.2-0.6,24.5-1.2,41.8-4.2
	c21.6-3.8,38.8-6.9,57.6-18.4C192.7,114.6,195.1,112.9,196.8,111.8z"/>
<path class="st3" d="M195.7,109.7l0.3,0.9c-0.6,0.4-1.6,1-2.8,1.6c-3,1.7-12.8,7-34.2,12.7c-10.3,2.7-18.5,4.3-24.4,5.3
	c-6.3,1.2-11.2,1.9-13.2,2.2c-18.9,2.9-37.9,4.1-57,3.6c-5.6-0.2-10.2-0.5-13.3-0.8c15.1,0.2,28.1-0.5,38.5-1.4
	c20.1-1.9,40.1-5,59.8-9.3c6.1-1.3,9.6-2.2,16.5-4c12.3-3.2,17.5-5,22.6-7.3C191.5,111.9,194.1,110.6,195.7,109.7z"/>
<path class="st2" d="M64.5,124.6l-12.2-1.1c-0.2,0-0.4,0-0.5,0.1l-8,2.7c-0.1,0-0.1,0.1-0.1,0.2c0,0,0,0.1,0.1,0.1l7.2,2.1
	L64.5,124.6z"/>
<path class="st3" d="M63,125.1l-10.8-0.9l-5.2,1.8c-0.1,0-0.1,0.1-0.1,0.2c0,0,0,0.1,0.1,0.1l6.5,1.7L63,125.1z"/>
<path class="st2" d="M75,143.8l-4.9,8.4c-0.4,0.7-1.1,1.1-1.9,1l-8.9-0.9c-0.4,0-0.7-0.4-0.7-0.8l1-11L75,143.8z"/>
<path class="st3" d="M74,143.6l-4.7,7.8c-0.3,0.5-0.8,0.7-1.3,0.7l-6.6-0.4c-0.2,0-0.3-0.2-0.3-0.4c0,0,0,0,0,0l0.8-10.4L74,143.6z"
	/>
<path class="st3" d="M201.3,108.7c0.2-0.6,0.1-1.3-0.2-1.9c-0.3-0.6-0.6-1.2-1-1.8c-0.8-1.2-1.9-2.8-2.8-2.8s-1.4,1.7-1.8,3.3
	c-0.5,2.2-0.1,4.5,1.2,6.3c0.8,1.2,1.7,2.1,2.4,1.9c0.5-0.2,0.9-1.1,1.5-2.9C200.9,110,201.1,109.3,201.3,108.7z"/>
<path class="st3" d="M120.2,148.1c1.4-0.7,2.8-1.2,4.2-1.6c1.8-0.5,3.6-0.8,5.4-1c0.1,0,1.3-0.1,2.9-0.1c1.1-0.1,2.3,0.1,3.3,0.6
	c0.3,0.2,0.7,0.4,0.9,0.7V144c-0.3-0.2-0.7-0.3-1-0.5c-2-0.7-4.1-1-6.1-0.7c-2.6,0.2-5.2,0.9-7.6,1.9c-0.8,0.3-1.5,0.6-2,0.8
	L120.2,148.1L120.2,148.1z"/>
<path class="st2" d="M120.7,147.8l-0.1,3.7l5.9-1.4v-2c2.3-0.2,4.2-0.4,5.6-0.6c3-0.4,4.1-0.8,4.1-1.1c0-0.1-0.1-0.2-0.1-0.2
	c-1.2-1.2-5.5-0.8-6.4-0.6s-1.9,0.2-3.3,0.5C124.5,146.3,122.6,146.9,120.7,147.8z"/>
<rect x="124.4" y="146.1" class="st3" width="0.5" height="4.4"/>
<rect x="127.8" y="145.3" class="st3" width="0.4" height="5.1"/>
<rect x="136.1" y="145.9" class="st3" width="0.4" height="5.7"/>
<rect x="134.1" y="146.9" class="st2" width="0.3" height="3.9"/>
<path class="st3" d="M136.7,151.3l-0.2,2.5c-1.3-0.3-2.7-0.5-4.1-0.6c-2.1-0.1-4.1,0-6.2,0.4c-1.8,0.3-3.5,0.7-5.2,1.3v-1.8
	c-0.1-0.1-0.3-0.2-0.5-0.1c-0.1,0.1-0.1,0.3-0.1,0.4c-0.2,0.3-0.9,0.2-1.8-0.1c-0.7-0.2-2.6-1.1-2.5-1.8s2.2-1.2,4-0.9
	c0.5,0.1,1,0.3,1.5,0.6C126.5,149.4,131.9,149.4,136.7,151.3z"/>
<path class="st2" d="M121,154.9c0.6,0.2,1.2,0.3,1.8,0.4c1.1,0.2,2.2,0.3,6.2,0c1.8,0,3.6-0.3,5.4-0.7c0.7-0.2,1.4-0.5,2-0.8
	C131.3,152.6,125.9,152.9,121,154.9z"/>
<linearGradient id="SVGID_2_" gradientUnits="userSpaceOnUse" x1="-160.7549" y1="448.7271" x2="-129.3449" y2="448.7271" gradientTransform="matrix(-0.98 -0.21 -0.21 0.98 -20.6831 -327.0422)">
	<stop  offset="0.22" style="stop-color:#FFFFFF"/>
	<stop  offset="0.88" style="stop-color:#8CB7DC"/>
</linearGradient>
<path class="st5" d="M8.1,146.3l12.5-2l19.6-3.3c0.8-0.1,1.3-0.8,1.3-1.5c-0.4-0.6-1.2-0.9-1.9-0.5c-5.6,1.3-11.3,2.6-17,3.9
	C17.8,144,12.9,145.1,8.1,146.3z"/>
<ellipse transform="matrix(4.780376e-02 -0.9989 0.9989 4.780376e-02 -125.1153 170.4107)" class="st6" cx="26.8" cy="150.8" rx="0.8" ry="0.7"/>
<ellipse transform="matrix(4.780376e-02 -0.9989 0.9989 4.780376e-02 -100.3267 152.8171)" class="st7" cx="30" cy="129" rx="0.4" ry="0.4"/>
<ellipse transform="matrix(4.780376e-02 -0.9989 0.9989 4.780376e-02 -126.5852 145.2688)" class="st8" cx="12.9" cy="139" rx="0.8" ry="0.7"/>
<ellipse transform="matrix(4.780376e-02 -0.9989 0.9989 4.780376e-02 -95.2568 179.9158)" class="st6" cx="46.7" cy="139.9" rx="0.4" ry="0.4"/>
<linearGradient id="SVGID_3_" gradientUnits="userSpaceOnUse" x1="-231.6714" y1="554.4176" x2="-200.2614" y2="554.4176" gradientTransform="matrix(-0.62 -0.14 -0.14 0.69 -15.6954 -264.7241)">
	<stop  offset="0.22" style="stop-color:#FFFFFF"/>
	<stop  offset="0.88" style="stop-color:#8CB7DC"/>
</linearGradient>
<path class="st9" d="M28.6,150.4l7.9-1.5l12.4-2.4c0.5-0.1,0.9-0.6,0.8-1.1c-0.2-0.4-0.7-0.6-1.1-0.4c0,0,0,0-0.1,0
	c-3.6,0.9-7.1,1.9-10.8,2.9C34.8,148.7,31.7,149.6,28.6,150.4z"/>
<path class="st10" d="M45.2,229.4c-0.9,0.7-2,1.1-3.2,1.1H5.2v-15.3c0.2,0,0.4,0,0.5,0c1-3.8,3.9-6.9,7.8-7.9
	c4.8-1.4,10.1,0.1,13.4,3.9c3.3-1.6,7.2-1.2,10.2,0.9c2.1,1.6,3.1,4.2,2.8,6.8c3.4-0.2,6.5,1.8,7.3,4.7
	C47.7,225.7,47,228,45.2,229.4z"/>
<g class="st11">
	<path class="st12" d="M28.3,212.9c-2-3-5-5-8.5-5.8c-3.6-0.8-7.3,0-10.2,2.2c-2.5,2.1-4.1,5.1-4.4,8.3c0.2-0.8,1.8-6.5,7.2-9
		C17.6,206.3,24.1,208,28.3,212.9z"/>
	<path class="st12" d="M91,49.5c0.5-3.6,2.1-6.9,4.6-9.6c2.1-2.3,4.9-4,7.9-4.9c3.4-1,7-0.9,10.3,0.2c3,0.9,5.7,2.8,7.7,5.3
		c1.8,2.3,2.9,5.1,3.1,8c-0.2-0.9-2.2-8.4-9.6-11.6c-7.9-3.4-15.2,1.1-16.3,1.8C95,41.3,92.2,45.1,91,49.5z"/>
</g>
<path class="st13" d="M161.4,176.7c0.3-2.2,1.3-4.3,2.8-5.9c1.3-1.4,3-2.5,4.9-3c2.1-0.6,4.3-0.6,6.4,0.1c1.9,0.6,3.5,1.7,4.7,3.2
	c1.1,1.4,1.8,3.2,1.9,5c-0.8-3.1-3-5.8-5.9-7.1c-4.9-2.1-9.4,0.7-10,1.1C163.8,171.6,162.1,174,161.4,176.7z"/>
<ellipse transform="matrix(4.780376e-02 -0.9989 0.9989 4.780376e-02 -10.0165 157.812)" class="st14" cx="77.8" cy="84.2" rx="0.7" ry="0.6"/>
<path class="st14" d="M137.6,227.4c-0.1-0.4,0.2-0.7,0.5-0.8c0.3-0.1,0.7,0.2,0.7,0.5c0,0,0,0,0,0l0,0l0,0c0.1,0.4-0.2,0.7-0.5,0.8
	C138,228,137.6,227.7,137.6,227.4C137.6,227.4,137.6,227.4,137.6,227.4L137.6,227.4L137.6,227.4z"/>
<path class="st8" d="M77.4,20c-0.3,0.2-0.7,0.1-0.9-0.2c0,0,0,0,0,0l0,0c-0.2-0.3,0-0.7,0.3-0.9c0.3-0.2,0.7,0,0.9,0.3l0,0
	C77.8,19.5,77.7,19.8,77.4,20z"/>
<path class="st8" d="M201.3,20.7c-0.3,0.2-0.7,0-0.9-0.3l0,0c-0.2-0.3,0-0.7,0.3-0.9c0.3-0.2,0.7,0,0.9,0.3l0,0
	C201.7,20.1,201.6,20.5,201.3,20.7z"/>
<path class="st15" d="M151.3,29.6c0.1-0.5,0.3-1,0.6-1.4c0.3,0.4,0.6,0.9,0.6,1.4c0,0.1,0,0.2,0,0.2c0.1,0.1,0.1,0.2,0.2,0.2h0.3
	l0.4,0.1c0.3,0,0.6,0.2,0.7,0.5c-0.4,0.3-1,0.5-1.5,0.6c-0.1,0-0.1,0-0.2,0c0,0.1,0,0.1,0,0.2c0,0.6-0.2,1.1-0.6,1.5
	c-0.2-0.2-0.3-0.4-0.4-0.6c0-0.1-0.1-0.3-0.1-0.4v-0.4c0-0.1-0.1-0.2-0.1-0.3c-0.1,0-0.2,0-0.3,0.1c-0.5,0-1-0.2-1.4-0.5
	c0.1-0.2,0.4-0.4,0.6-0.5l0.4-0.1h0.3c0.1,0,0.2-0.1,0.3-0.2C151.3,29.8,151.3,29.7,151.3,29.6z"/>
<path class="st15" d="M199.2,127.5c0-0.3,0.2-0.6,0.3-0.9c0.2,0.3,0.3,0.6,0.4,0.9c0,0.1,0,0.1,0,0.2c0,0.1,0.1,0.1,0.1,0.1h0.5
	c0.2,0,0.3,0.2,0.4,0.3c-0.3,0.2-0.6,0.3-0.9,0.4c0,0-0.1,0-0.1,0c0,0,0,0.1,0,0.1c0,0.4-0.1,0.7-0.4,1c-0.1-0.1-0.2-0.3-0.2-0.4
	c0-0.1,0-0.2,0-0.3c0-0.1,0-0.2,0-0.3c0-0.1,0-0.1,0-0.2c0,0-0.1,0-0.1,0c-0.3,0-0.6-0.1-0.8-0.4c0.1-0.1,0.2-0.3,0.4-0.3h0.4
	c0.1,0,0.1-0.1,0.2-0.2C199.3,127.6,199.3,127.6,199.2,127.5z"/>
<path class="st8" d="M194.6,64.5c-0.1-0.7,0.3-1.4,1-1.5l0,0c0.7-0.1,1.4,0.4,1.5,1.1c0,0,0,0,0,0l0,0c0.1,0.7-0.3,1.4-1,1.5l0,0
	C195.4,65.7,194.7,65.2,194.6,64.5L194.6,64.5L194.6,64.5z"/>
<path class="st15" d="M45.8,185.3c0.1-0.5,0.3-1,0.6-1.4c0.3,0.4,0.6,0.9,0.6,1.4c0,0.1,0,0.2,0,0.2c0.1,0.1,0.1,0.2,0.2,0.2h0.3
	l0.5,0.1c0.3,0,0.6,0.2,0.7,0.5c-0.4,0.3-1,0.5-1.5,0.6c-0.1,0-0.1,0-0.2,0c0,0.1,0,0.1,0,0.2c0,0.6-0.2,1.1-0.6,1.5
	c-0.2-0.2-0.3-0.4-0.4-0.6c0-0.1-0.1-0.3-0.1-0.4v-0.4c0-0.1-0.1-0.2-0.1-0.3c-0.1-0.1-0.2-0.1-0.2-0.1c-0.5,0-1-0.2-1.4-0.6
	c0.1-0.2,0.4-0.4,0.6-0.4l0.4-0.1l0.1,0.2c0.1,0,0.2-0.1,0.3-0.2C45.7,185.6,45.8,185.4,45.8,185.3z"/>
<path class="st15" d="M21.7,93.3c0-0.3,0.2-0.6,0.3-0.9c0.2,0.3,0.3,0.6,0.4,0.9c0,0.1,0,0.1,0,0.2c0,0.1,0.1,0.1,0.1,0.1H23
	c0.2,0,0.3,0.2,0.4,0.3c-0.3,0.2-0.6,0.3-0.9,0.4c0,0-0.1,0-0.1,0c0,0,0,0.1,0,0.2c0,0.4-0.1,0.7-0.4,1c-0.1-0.1-0.2-0.3-0.2-0.4
	c0-0.1,0-0.2,0-0.3c0-0.1,0-0.2,0-0.3c0-0.1,0-0.1,0-0.2c0,0-0.1,0-0.1,0c-0.3,0-0.6-0.1-0.8-0.4c0.1-0.1,0.2-0.3,0.4-0.3h0.4
	c0.1,0,0.1-0.1,0.2-0.1C21.8,93.4,21.7,93.3,21.7,93.3z"/>
<path class="st1" d="M55.4,62.6c0.8-3.4,3.3-6.2,6.5-7.5c3.3-1,6.8-0.3,9.4,1.8c0.6-6.8,6.5-11.8,13.3-11.3c2.4,0.2,4.8,1.1,6.7,2.7
	c1.8-9.2,10.7-15.3,19.9-13.5c6.8,1.3,12.1,6.6,13.4,13.3c4.8-1.9,10.3-0.9,14.1,2.6c1.7,1.7,2.8,3.9,3.3,6.3
	c2.6-2.1,6.1-2.9,9.3-1.9c3.3,1.2,5.9,4,6.8,7.4L55.4,62.6L55.4,62.6z"/>
<path class="st8" d="M191.6,156.4c-0.3,0.2-0.7,0-0.9-0.3l0,0c-0.2-0.3,0-0.7,0.3-0.9c0.3-0.2,0.7,0,0.9,0.3l0,0
	C192,155.8,191.9,156.2,191.6,156.4z"/>
<path class="st14" d="M137.9,70.8c-0.3,0.2-0.7,0-0.9-0.3l0,0c-0.2-0.3,0-0.7,0.3-0.9c0.3-0.2,0.7,0,0.9,0.3l0,0
	C138.3,70.2,138.2,70.6,137.9,70.8z"/>
<ellipse transform="matrix(4.780376e-02 -0.9989 0.9989 4.780376e-02 -94.0943 259.7707)" class="st8" cx="89.2" cy="179.2" rx="0.8" ry="0.7"/>
<path class="st15" d="M190.6,226.3c0.1-0.5,0.3-1,0.6-1.4c0.3,0.4,0.6,0.9,0.6,1.4c0,0.1,0,0.2,0,0.2c0.1,0.1,0.1,0.2,0.2,0.2h0.3
	l0.4,0.1c0.3,0,0.6,0.2,0.7,0.5c-0.4,0.3-1,0.5-1.5,0.6c-0.1,0-0.1,0-0.2,0c0,0.1,0,0.1,0,0.2c0,0.6-0.2,1.1-0.6,1.5
	c-0.2-0.2-0.3-0.4-0.4-0.6c0-0.1-0.1-0.3-0.1-0.4v-0.4c0-0.1-0.1-0.2-0.1-0.3c-0.1-0.1-0.2-0.1-0.2-0.1c-0.5,0-1-0.2-1.4-0.6
	c0.1-0.2,0.4-0.4,0.6-0.4l0.4-0.1l0.1,0.2c0.1,0,0.2-0.1,0.3-0.2C190.6,226.5,190.6,226.4,190.6,226.3z"/>
<path class="st8" d="M116.5,203.5c-0.3,0.2-0.7,0-0.9-0.3l0,0c-0.2-0.3,0-0.7,0.3-0.9c0.3-0.2,0.7,0,0.9,0.3l0,0
	C117,202.9,116.8,203.3,116.5,203.5z"/>
<path class="st16" d="M88.5,53.3c-1-0.9-2.2-1.6-3.6-1.9c-3.6-1-7.3,1.2-8.4,4.8c1-1.7,2.5-3,4.4-3.7C83.4,51.7,86.2,51.9,88.5,53.3
	z"/>
<path class="st16" d="M139.2,57.3c-0.2-1.4-0.7-2.6-1.5-3.8c-2.1-3.1-6.3-3.9-9.4-1.9c1.8-0.6,3.8-0.6,5.6,0.1
	C136.5,52.8,138.4,54.8,139.2,57.3z"/>
<path class="st1" d="M26.8,62.7c0.8-2,2.6-3.5,4.7-3.9c2.3-0.5,4.7-0.2,6.7,1c0.4-3.6,4.7-6.2,9.5-5.9c1.7,0.1,3.3,0.5,4.8,1.3
	c1.2-4.8,7.5-8,14-7.2c5,0.7,8.8,3.5,9.8,7.1c3.4-1,7-0.5,10.1,1.3c1.1,0.8,1.9,2,2.3,3.3c2-1.1,4.4-1.5,6.6-1
	c2.2,0.4,4,1.9,4.8,3.9L26.8,62.7L26.8,62.7z"/>
<path class="st15" d="M21.6,19.3L21.6,19.3L17,21.4l-0.9-4.1l6.2-2.9h4.5v23.4h-5.3V19.3z"/>
<path class="st1" d="M139.4,184.7c0.5-2.1,2-3.8,4-4.6c2-0.6,4.2-0.2,5.8,1.1c0.3-4.2,4-7.3,8.2-6.9c1.5,0.1,2.9,0.7,4.1,1.6
	c1-5.7,6.4-9.5,12.1-8.5c4.3,0.8,7.6,4.1,8.4,8.4c3-1.2,6.3-0.5,8.7,1.6c1,1.1,1.7,2.4,2,3.9c1.6-1.3,3.7-1.8,5.7-1.2
	c2.1,0.7,3.6,2.4,4.2,4.6H139.4z"/>
<path class="st16" d="M159.8,179c-0.6-0.6-1.4-1-2.2-1.2c-2.2-0.6-4.5,0.7-5.2,2.9c0.6-1,1.6-1.8,2.7-2.2
	C156.7,178,158.4,178.2,159.8,179z"/>
<path class="st16" d="M191.1,181.5c-0.1-0.8-0.4-1.6-0.9-2.3c-1.3-1.9-3.9-2.4-5.8-1.2c1.1-0.4,2.3-0.4,3.5,0
	C189.4,178.6,190.6,179.9,191.1,181.5z"/>
<linearGradient id="SVGID_4_" gradientUnits="userSpaceOnUse" x1="-216.8715" y1="538.1943" x2="-185.4615" y2="538.1943" gradientTransform="matrix(-0.62 -0.14 -0.14 0.69 -15.6954 -264.7241)">
	<stop  offset="0.22" style="stop-color:#FFFFFF"/>
	<stop  offset="0.88" style="stop-color:#8CB7DC"/>
</linearGradient>
<path class="st17" d="M21.8,137.2l7.9-1.5l12.4-2.5c0.5-0.1,0.9-0.6,0.8-1.1c-0.2-0.4-0.7-0.6-1.1-0.4c0,0,0,0-0.1,0
	c-3.6,0.9-7.1,1.9-10.8,2.9C27.9,135.5,24.8,136.3,21.8,137.2z"/>
</svg>
