<svg id="Layer_1" data-name="Layer 1" xmlns="http://www.w3.org/2000/svg" viewBox="0 0 147.72 75.21"><defs><style>.cls-1{fill:#fff;opacity:0.82;}.cls-2{fill:#7ccdc6;}</style></defs><title>number</title><circle class="cls-1" cx="72.62" cy="37.15" r="19.56"/><path class="cls-2" d="M66.06,42a4.89,4.89,0,0,1,3.28-4.61V37.28a4.47,4.47,0,0,1-2.66-4c0-3.11,2.8-5.18,6.48-5.18,4.3,0,6.09,2.49,6.09,4.73a4.48,4.48,0,0,1-2.66,4v0.09A4.87,4.87,0,0,1,80,41.52c0,3.34-2.8,5.58-7.08,5.58C68.21,47.1,66.06,44.47,66.06,42Zm9.51-.14c0-1.61-1.19-2.58-2.89-3a2.79,2.79,0,0,0-2.24,2.75,2.52,2.52,0,0,0,2.6,2.58A2.31,2.31,0,0,0,75.58,41.84Zm-4.84-8.72c0,1.25,1.13,2,2.6,2.49a2.52,2.52,0,0,0,1.87-2.35A2.11,2.11,0,0,0,73,31,2.05,2.05,0,0,0,70.73,33.12Z"/></svg>