<svg id="Layer_1" data-name="Layer 1" xmlns="http://www.w3.org/2000/svg" viewBox="0 0 147.72 75.21"><defs><style>.cls-1{fill:#fff;opacity:0.82;}.cls-2{fill:#e8cb4e;}</style></defs><title>number</title><circle class="cls-1" cx="73.3" cy="39.75" r="19.56"/><path class="cls-2" d="M63.29,34.81H63.23l-3.51,1.67L59,33.25,63.88,31h3.57v18.4H63.29V34.81Z"/><path class="cls-2" d="M85.26,34a11.8,11.8,0,0,0-1.67.06c-3.82.31-5.52,2.26-6,4.42h0.09A5.18,5.18,0,0,1,81.57,37c3.09,0,5.69,2.18,5.69,6a6.59,6.59,0,0,1-6.79,6.65c-4.9,0-7.3-3.65-7.3-8a11,11,0,0,1,3.26-8.18,11,11,0,0,1,7.11-2.72,12.32,12.32,0,0,1,1.73,0V34Zm-2.35,9.23c0-1.7-.91-3.17-2.75-3.17a2.81,2.81,0,0,0-2.55,1.64,2.48,2.48,0,0,0-.17,1.08c0.08,2,1,3.71,3,3.71C81.94,46.53,82.91,45.14,82.91,43.27Z"/></svg>