<svg id="Layer_1" data-name="Layer 1" xmlns="http://www.w3.org/2000/svg" viewBox="0 0 147.72 75.21"><defs><style>.cls-1{fill:#fff;opacity:0.82;}.cls-2{fill:#6b95ba;}</style></defs><title>number</title><circle class="cls-1" cx="73.76" cy="38.45" r="19.56"/><path class="cls-2" d="M68.36,45a10.13,10.13,0,0,0,1.87,0,7.39,7.39,0,0,0,3.62-1.13,5.72,5.72,0,0,0,2.32-3.4l-0.09,0a4.86,4.86,0,0,1-3.68,1.33A5.54,5.54,0,0,1,66.66,36a6.69,6.69,0,0,1,6.94-6.62c4.73,0,7,3.62,7,7.93,0,3.82-1.22,6.62-3.23,8.47a10.88,10.88,0,0,1-7,2.58,14.82,14.82,0,0,1-2,0V45ZM71,35.75c0,1.59.85,2.94,2.6,2.94a2.71,2.71,0,0,0,2.38-1.22,2,2,0,0,0,.23-1.08c0-2-.74-3.88-2.69-3.88C72,32.52,70.94,33.82,71,35.75Z"/></svg>