<svg id="Layer_1" data-name="Layer 1" xmlns="http://www.w3.org/2000/svg" viewBox="0 0 278.37 805.4"><defs><style>.cls-1,.cls-5{fill:#6b95ba;}.cls-1{stroke:#fff;stroke-miterlimit:10;stroke-width:5px;}.cls-2{font-size:133.26px;font-family:Myriad Pro;font-weight:700;}.cls-2,.cls-3,.cls-4{fill:#fff;}.cls-4{opacity:0.82;}</style></defs><title>square</title><rect class="cls-1" x="47.38" y="301.95" width="183.61" height="206.7"/><text class="cls-2" transform="translate(103.1 453.01)">F</text><path class="cls-3" d="M53.4,552.4h14v4.25H58.6v5.24h8.23v4.22H58.6v9.21H53.4V552.4Z"/><path class="cls-3" d="M74.06,552.4h5.2V571h9.11v4.35H74.06V552.4Z"/><path class="cls-3" d="M98.3,552.4V565.6c0,3.94,1.5,5.95,4.15,5.95s4.22-1.9,4.22-5.95V552.4h5.17v12.85c0,7.07-3.57,10.44-9.55,10.44-5.78,0-9.18-3.2-9.18-10.5V552.4h5.2Z"/><path class="cls-3" d="M140,563.62c0,7.51-4.56,12.07-11.25,12.07S118,570.56,118,564c0-6.87,4.39-12,11.15-12C136.2,552,140,557.3,140,563.62Zm-16.56.31c0,4.49,2.11,7.65,5.58,7.65s5.51-3.33,5.51-7.79c0-4.11-2-7.65-5.54-7.65S123.49,559.48,123.49,563.93Z"/><path class="cls-3" d="M146.19,552.71a45.54,45.54,0,0,1,6.9-.48c3.4,0,5.78.51,7.41,1.8a5.82,5.82,0,0,1,2.11,4.79,6.08,6.08,0,0,1-4,5.64v0.1c1.6,0.65,2.48,2.18,3.06,4.28,0.71,2.58,1.43,5.58,1.87,6.46h-5.3a28.68,28.68,0,0,1-1.6-5.34c-0.61-2.86-1.6-3.64-3.71-3.67h-1.56v9h-5.13V552.71Zm5.13,9.86h2c2.58,0,4.11-1.29,4.11-3.3s-1.43-3.16-3.81-3.2a13,13,0,0,0-2.35.17v6.32Z"/><path class="cls-3" d="M174.3,552.4v22.91h-5.2V552.4h5.2Z"/><path class="cls-3" d="M181.54,575.32V552.4h6.05l4.76,8.4a66.46,66.46,0,0,1,3.74,7.85h0.1a85.05,85.05,0,0,1-.44-9.55v-6.7h4.76v22.91h-5.44l-4.9-8.84a85.23,85.23,0,0,1-4-8.09l-0.1,0c0.14,3,.2,6.26.2,10v6.9h-4.76Z"/><path class="cls-3" d="M221.38,565.63h-8.43v5.44h9.42v4.25H207.74V552.4h14.14v4.25h-8.94v4.76h8.43v4.22Z"/><circle class="cls-4" cx="138.4" cy="48.77" r="28.83"/><path class="cls-5" d="M130.45,58.39a14.94,14.94,0,0,0,2.75,0,10.9,10.9,0,0,0,5.34-1.67,8.43,8.43,0,0,0,3.42-5l-0.13,0a7.16,7.16,0,0,1-5.43,2,8.17,8.17,0,0,1-8.47-8.47,9.86,9.86,0,0,1,10.22-9.77c7,0,10.27,5.34,10.27,11.69,0,5.63-1.79,9.77-4.76,12.48a16,16,0,0,1-10.35,3.8,21.84,21.84,0,0,1-2.88,0v-5Zm3.84-13.6c0,2.34,1.25,4.34,3.84,4.34a4,4,0,0,0,3.51-1.79,3,3,0,0,0,.33-1.59c0-2.88-1.09-5.72-4-5.72C135.83,40,134.24,41.94,134.29,44.78Z"/></svg>