<svg id="Layer_1" data-name="Layer 1" xmlns="http://www.w3.org/2000/svg" viewBox="0 0 278.02 804.63"><defs><style>.cls-1,.cls-5{fill:#7ccdc6;}.cls-1{stroke:#fff;stroke-miterlimit:10;stroke-width:5px;}.cls-2{font-size:133.26px;font-family:Myriad Pro;font-weight:700;}.cls-2,.cls-3,.cls-4{fill:#fff;}.cls-4{opacity:0.82;}</style></defs><title>square</title><rect class="cls-1" x="49.48" y="302.17" width="183.61" height="206.7"/><text class="cls-2" transform="translate(91.2 453.23)">O</text><path class="cls-3" d="M89.47,563.84c0,7.51-4.56,12.07-11.25,12.07s-10.78-5.13-10.78-11.66c0-6.87,4.39-12,11.15-12C85.63,552.25,89.47,557.52,89.47,563.84Zm-16.56.31c0,4.49,2.11,7.65,5.58,7.65S84,568.47,84,564c0-4.11-2-7.65-5.54-7.65S72.91,559.69,72.91,564.15Z"/><path class="cls-3" d="M106.57,575.54l-2.07-4.15c-0.85-1.6-1.39-2.79-2-4.11h-0.07c-0.48,1.33-1.05,2.52-1.77,4.11l-1.9,4.15H92.8l6.63-11.59L93,552.62H99l2,4.18c0.68,1.39,1.19,2.52,1.73,3.81h0.07c0.54-1.46,1-2.48,1.56-3.81l1.94-4.18h5.92l-6.46,11.18,6.8,11.73h-6Z"/><path class="cls-3" d="M123.8,575.54v-9.38l-7.24-13.53h5.92l2.35,5.51c0.71,1.67,1.19,2.89,1.77,4.39h0.07c0.51-1.43,1.05-2.75,1.73-4.39l2.31-5.51h5.81L129,566v9.55H123.8Z"/><path class="cls-3" d="M159.29,574.48a25.65,25.65,0,0,1-7.65,1.29c-4.18,0-7.21-1.05-9.32-3.09a11.09,11.09,0,0,1-3.23-8.33c0-7.62,5.58-12,13.09-12a15.78,15.78,0,0,1,6.36,1.12l-1.09,4.15a12.7,12.7,0,0,0-5.34-1c-4.32,0-7.58,2.45-7.58,7.41,0,4.73,3,7.51,7.21,7.51a6.94,6.94,0,0,0,2.55-.34v-4.79h-3.54v-4h8.53v12.07Z"/><path class="cls-3" d="M179.71,565.85h-8.43v5.44h9.42v4.25H166.08V552.62h14.14v4.25h-8.94v4.76h8.43v4.22Z"/><path class="cls-3" d="M187,575.54V552.62H193l4.76,8.4a66.46,66.46,0,0,1,3.74,7.85h0.1a85.05,85.05,0,0,1-.44-9.55v-6.7H206v22.91h-5.44l-4.9-8.84a85.23,85.23,0,0,1-4-8.09l-0.1,0c0.14,3,.2,6.26.2,10v6.9H187Z"/><circle class="cls-4" cx="140.09" cy="48.99" r="28.83"/><path class="cls-5" d="M129,56.1c0-3.25,1.88-5.51,4.84-6.8V49.17a6.58,6.58,0,0,1-3.92-5.93c0-4.59,4.13-7.64,9.56-7.64,6.34,0,9,3.67,9,7a6.61,6.61,0,0,1-3.92,6v0.13a7.18,7.18,0,0,1,5,6.76c0,4.92-4.13,8.22-10.43,8.22C132.12,63.65,129,59.77,129,56.1Zm14-.21c0-2.38-1.75-3.8-4.26-4.47a4.11,4.11,0,0,0-3.3,4,3.71,3.71,0,0,0,3.84,3.8A3.41,3.41,0,0,0,143,55.89ZM135.84,43c0,1.84,1.67,3,3.84,3.67a3.71,3.71,0,0,0,2.75-3.46,3.11,3.11,0,0,0-3.3-3.34A3,3,0,0,0,135.84,43Z"/></svg>