<svg id="Layer_1" data-name="Layer 1" xmlns="http://www.w3.org/2000/svg" viewBox="0 0 146.72 205.23"><defs><style>.cls-1{fill:#7ccdc6;stroke:#fff;stroke-miterlimit:10;stroke-width:3.11px;}.cls-2{fill:#fff;}</style></defs><title>square</title><rect class="cls-1" x="15.92" y="17.2" width="114.32" height="128.7"/><path class="cls-2" d="M98.57,82.71c0,18.34-11.12,29.46-27.47,29.46-16.6,0-26.3-12.53-26.3-28.46C44.8,66.95,55.5,54.42,72,54.42,89.19,54.42,98.57,67.28,98.57,82.71Zm-40.41.75c0,11,5.14,18.67,13.61,18.67s13.44-8.13,13.44-19c0-10-4.81-18.67-13.52-18.67C63.14,64.46,58.16,72.59,58.16,83.46Z"/><path class="cls-2" d="M40.82,180.13c0,4.68-2.84,7.51-7,7.51s-6.71-3.2-6.71-7.26c0-4.28,2.73-7.47,6.94-7.47C38.42,172.91,40.82,176.19,40.82,180.13Zm-10.31.19c0,2.79,1.31,4.76,3.47,4.76s3.43-2.07,3.43-4.85c0-2.56-1.23-4.76-3.45-4.76S30.51,177.54,30.51,180.32Z"/><path class="cls-2" d="M51.46,187.41l-1.29-2.58c-0.53-1-.87-1.74-1.27-2.56h0c-0.3.83-.66,1.57-1.1,2.56l-1.19,2.58H42.89L47,180.19l-4-7h3.7l1.25,2.6c0.42,0.87.74,1.57,1.08,2.37h0c0.34-.91.61-1.54,1-2.37l1.21-2.6H55l-4,7,4.23,7.3H51.46Z"/><path class="cls-2" d="M62.19,187.41v-5.84l-4.51-8.42h3.68l1.46,3.43c0.44,1,.74,1.8,1.1,2.73h0c0.32-.89.66-1.71,1.08-2.73l1.44-3.43h3.62l-4.7,8.32v5.95H62.19Z"/><path class="cls-2" d="M84.28,186.75a16,16,0,0,1-4.76.8,8,8,0,0,1-5.8-1.93,6.9,6.9,0,0,1-2-5.19c0-4.74,3.47-7.45,8.15-7.45a9.82,9.82,0,0,1,4,.7l-0.68,2.58a7.9,7.9,0,0,0-3.32-.61c-2.69,0-4.72,1.52-4.72,4.61S76.94,185,79.59,185a4.32,4.32,0,0,0,1.59-.21v-3H79v-2.52h5.31v7.51Z"/><path class="cls-2" d="M97,181.38H91.75v3.39h5.86v2.65h-9.1V173.14h8.8v2.65H91.75v3H97v2.63Z"/><path class="cls-2" d="M101.53,187.41V173.14h3.77l3,5.23a41.34,41.34,0,0,1,2.33,4.89h0.06a52.86,52.86,0,0,1-.28-5.95v-4.17h3v14.26H110l-3-5.5a52.88,52.88,0,0,1-2.48-5l-0.06,0c0.08,1.88.13,3.89,0.13,6.22v4.3h-3Z"/></svg>