<svg id="Layer_1" data-name="Layer 1" xmlns="http://www.w3.org/2000/svg" viewBox="0 0 277.83 804.52"><defs><style>.cls-1{fill:#b5d161;stroke:#fff;stroke-miterlimit:10;stroke-width:5px;}.cls-2{font-size:133.26px;font-family:Myriad Pro;font-weight:700;}.cls-2,.cls-3,.cls-4{fill:#fff;}.cls-4{opacity:0.82;}.cls-5{fill:#b2c65b;}</style></defs><title>square</title><rect class="cls-1" x="45.88" y="299.8" width="183.61" height="206.7"/><text class="cls-2" transform="translate(92.6 450.86)">C</text><path class="cls-3" d="M82.72,574.73a14.77,14.77,0,0,1-5.88,1c-7.92,0-12-4.93-12-11.46,0-7.82,5.58-12.17,12.51-12.17a13.51,13.51,0,0,1,5.64,1l-1.05,4.11a11.19,11.19,0,0,0-4.35-.85c-4.11,0-7.31,2.48-7.31,7.58,0,4.59,2.72,7.48,7.34,7.48a13,13,0,0,0,4.32-.75Z"/><path class="cls-3" d="M94.55,569.5l-1.63,5.88H87.54l7-22.91h6.8l7.11,22.91h-5.58l-1.77-5.88H94.55Zm5.81-3.88-1.43-4.86c-0.41-1.36-.82-3.06-1.16-4.42H97.71c-0.34,1.36-.68,3.09-1.05,4.42l-1.36,4.86h5.07Z"/><path class="cls-3" d="M114.26,552.77a45.54,45.54,0,0,1,6.9-.48c3.4,0,5.78.51,7.41,1.8a5.82,5.82,0,0,1,2.11,4.79,6.08,6.08,0,0,1-4,5.64v0.1c1.6,0.65,2.48,2.18,3.06,4.28,0.71,2.58,1.43,5.58,1.87,6.46h-5.3a28.65,28.65,0,0,1-1.6-5.34c-0.61-2.86-1.6-3.64-3.71-3.67H119.4v9h-5.13V552.77Zm5.13,9.86h2c2.58,0,4.11-1.29,4.11-3.3s-1.43-3.16-3.81-3.2a13,13,0,0,0-2.35.17v6.32Z"/><path class="cls-3" d="M137.17,552.77a41.28,41.28,0,0,1,6.7-.48c3.16,0,5.1.31,6.77,1.29a5,5,0,0,1,2.75,4.49,5.18,5.18,0,0,1-3.77,4.9V563a5.73,5.73,0,0,1,4.56,5.64,6.1,6.1,0,0,1-2.38,4.86c-1.67,1.33-4.45,2.07-9,2.07a40.1,40.1,0,0,1-5.61-.34V552.77Zm5.13,8.77H144c2.72,0,4.18-1.12,4.18-2.82s-1.33-2.65-3.67-2.65a14.17,14.17,0,0,0-2.21.14v5.34Zm0,10.17a16.38,16.38,0,0,0,2,.07c2.35,0,4.42-.88,4.42-3.3s-2.07-3.23-4.66-3.23H142.3v6.46Z"/><path class="cls-3" d="M181.43,563.68c0,7.51-4.56,12.07-11.25,12.07s-10.78-5.13-10.78-11.66c0-6.87,4.39-12,11.15-12C177.59,552.09,181.43,557.36,181.43,563.68Zm-16.56.31c0,4.49,2.11,7.65,5.58,7.65s5.51-3.33,5.51-7.79c0-4.11-2-7.65-5.54-7.65S164.87,559.53,164.87,564Z"/><path class="cls-3" d="M187.58,575.38V552.46h6.05l4.76,8.4a66.45,66.45,0,0,1,3.74,7.85h0.1a85.05,85.05,0,0,1-.44-9.55v-6.7h4.76v22.91h-5.44l-4.9-8.84a84.88,84.88,0,0,1-4-8.09l-0.1,0c0.14,3,.2,6.26.2,10v6.9h-4.76Z"/><circle class="cls-4" cx="139.22" cy="48.77" r="28.83"/><path class="cls-5" d="M145.07,40.36a17.39,17.39,0,0,0-2.46.08c-5.63.46-8.14,3.34-8.85,6.51h0.13a7.64,7.64,0,0,1,5.76-2.17c4.55,0,8.39,3.21,8.39,8.85a9.72,9.72,0,0,1-10,9.81c-7.22,0-10.77-5.38-10.77-11.85A16.24,16.24,0,0,1,132,39.52a16.25,16.25,0,0,1,10.48-4,18.16,18.16,0,0,1,2.55,0v4.88ZM141.6,54c0-2.5-1.34-4.67-4-4.67a4.14,4.14,0,0,0-3.76,2.42,3.66,3.66,0,0,0-.25,1.59c0.13,2.88,1.5,5.47,4.38,5.47C140.19,58.76,141.6,56.72,141.6,54Z"/></svg>