<svg id="Layer_1" data-name="Layer 1" xmlns="http://www.w3.org/2000/svg" viewBox="0 0 277.72 806.51"><defs><style>.cls-1,.cls-5{fill:#e8cb4e;}.cls-1{stroke:#fff;stroke-miterlimit:10;stroke-width:5px;}.cls-2{font-size:133.26px;font-family:Myriad Pro;font-weight:700;}.cls-2,.cls-3,.cls-4{fill:#fff;}.cls-4{opacity:0.82;}</style></defs><title>square</title><rect class="cls-1" x="47.85" y="300.79" width="183.61" height="206.7"/><text class="cls-2" transform="translate(102.57 451.85)">S</text><path class="cls-3" d="M70,571.82a13.22,13.22,0,0,0,5.75,1.43c2.38,0,3.64-1,3.64-2.48s-1.09-2.24-3.84-3.23c-3.81-1.33-6.29-3.43-6.29-6.77,0-3.91,3.26-6.9,8.67-6.9A14,14,0,0,1,83.81,555l-1.16,4.18a10.89,10.89,0,0,0-4.79-1.09c-2.24,0-3.33,1-3.33,2.21,0,1.46,1.29,2.11,4.25,3.23,4,1.5,5.95,3.6,5.95,6.83,0,3.84-3,7.1-9.25,7.1A15,15,0,0,1,69,576.1Z"/><path class="cls-3" d="M96.14,554.24v13.19c0,3.94,1.5,5.95,4.15,5.95s4.22-1.9,4.22-5.95V554.24h5.17V567.1c0,7.07-3.57,10.44-9.55,10.44-5.78,0-9.18-3.2-9.18-10.5V554.24h5.2Z"/><path class="cls-3" d="M116.91,554.24h5.2v18.56h9.11v4.35H116.91V554.24Z"/><path class="cls-3" d="M137,554.24h14v4.25h-8.8v5.24h8.23v4.22h-8.23v9.21H137V554.24Z"/><path class="cls-3" d="M162.86,554.24v13.19c0,3.94,1.5,5.95,4.15,5.95s4.22-1.9,4.22-5.95V554.24h5.17V567.1c0,7.07-3.57,10.44-9.55,10.44-5.78,0-9.18-3.2-9.18-10.5V554.24h5.2Z"/><path class="cls-3" d="M183.63,554.55a45.53,45.53,0,0,1,6.9-.48c3.4,0,5.78.51,7.41,1.8a5.82,5.82,0,0,1,2.11,4.79,6.08,6.08,0,0,1-4,5.64v0.1c1.6,0.65,2.48,2.18,3.06,4.28,0.71,2.58,1.43,5.58,1.87,6.46h-5.3a28.68,28.68,0,0,1-1.6-5.34c-0.61-2.86-1.6-3.64-3.71-3.67h-1.56v9h-5.13V554.55Zm5.13,9.86h2c2.58,0,4.11-1.29,4.11-3.3s-1.43-3.16-3.81-3.2a13,13,0,0,0-2.35.17v6.32Z"/><circle class="cls-4" cx="143.87" cy="49.87" r="28.83"/><path class="cls-5" d="M129.11,42.59H129l-5.17,2.46-1-4.76L130,37h5.26V64.08h-6.13V42.59Z"/><path class="cls-5" d="M161.49,41.46a17.39,17.39,0,0,0-2.46.08c-5.63.46-8.14,3.34-8.85,6.51h0.13a7.64,7.64,0,0,1,5.76-2.17c4.55,0,8.39,3.21,8.39,8.85a9.72,9.72,0,0,1-10,9.81c-7.22,0-10.77-5.38-10.77-11.85a16.24,16.24,0,0,1,4.8-12.06,16.25,16.25,0,0,1,10.48-4,18.16,18.16,0,0,1,2.55,0v4.88ZM158,55.07c0-2.5-1.34-4.67-4-4.67a4.14,4.14,0,0,0-3.76,2.42A3.66,3.66,0,0,0,150,54.4c0.13,2.88,1.5,5.47,4.38,5.47C156.61,59.87,158,57.82,158,55.07Z"/></svg>