<svg id="Layer_1" data-name="Layer 1" xmlns="http://www.w3.org/2000/svg" viewBox="0 0 146.72 205.23"><defs><style>.cls-1{fill:#6b95ba;stroke:#fff;stroke-miterlimit:10;stroke-width:3.11px;}.cls-2{fill:#fff;}</style></defs><title>square</title><rect class="cls-1" x="16.2" y="17.2" width="114.32" height="128.7"/><path class="cls-2" d="M56.37,55.33H90.56V65.7H69.07V78.48H89.15V88.77H69.07v22.49H56.37V55.33Z"/><path class="cls-2" d="M19.95,173.14h8.72v2.65H23.19V179h5.12v2.62H23.19v5.74H19.95V173.14Z"/><path class="cls-2" d="M32.81,173.14h3.24V184.7h5.67v2.71H32.81V173.14Z"/><path class="cls-2" d="M47.9,173.14v8.21c0,2.46.93,3.7,2.58,3.7s2.62-1.18,2.62-3.7v-8.21h3.22v8c0,4.4-2.22,6.5-5.95,6.5s-5.71-2-5.71-6.54v-8H47.9Z"/><path class="cls-2" d="M73.89,180.13c0,4.68-2.84,7.51-7,7.51s-6.71-3.2-6.71-7.26c0-4.28,2.73-7.47,6.94-7.47C71.5,172.91,73.89,176.19,73.89,180.13Zm-10.31.19c0,2.79,1.31,4.76,3.47,4.76s3.43-2.07,3.43-4.85c0-2.56-1.23-4.76-3.45-4.76S63.58,177.54,63.58,180.32Z"/><path class="cls-2" d="M77.72,173.33A28.4,28.4,0,0,1,82,173c2.12,0,3.6.32,4.61,1.12a3.62,3.62,0,0,1,1.31,3,3.79,3.79,0,0,1-2.52,3.51v0.06a3.6,3.6,0,0,1,1.9,2.67c0.44,1.61.89,3.47,1.16,4h-3.3a17.86,17.86,0,0,1-1-3.32c-0.38-1.78-1-2.26-2.31-2.29h-1v5.61h-3.2V173.33Zm3.2,6.14h1.27c1.61,0,2.56-.8,2.56-2.05s-0.89-2-2.37-2a8.09,8.09,0,0,0-1.46.11v3.94Z"/><path class="cls-2" d="M95.22,173.14v14.26H92V173.14h3.24Z"/><path class="cls-2" d="M99.73,187.41V173.14h3.77l3,5.23a41.41,41.41,0,0,1,2.33,4.89h0.06a52.86,52.86,0,0,1-.28-5.95v-4.17h3v14.26h-3.39l-3-5.5a52.88,52.88,0,0,1-2.48-5l-0.06,0c0.08,1.88.13,3.89,0.13,6.22v4.3h-3Z"/><path class="cls-2" d="M124.53,181.38h-5.25v3.39h5.86v2.65H116V173.14h8.8v2.65h-5.57v3h5.25v2.63Z"/></svg>