<svg id="Layer_1" data-name="Layer 1" xmlns="http://www.w3.org/2000/svg" viewBox="0 0 146.72 205.23"><defs><style>.cls-1{fill:#b5d161;stroke:#fff;stroke-miterlimit:10;stroke-width:3.11px;}.cls-2{fill:#fff;}</style></defs><title>square</title><rect class="cls-1" x="16.2" y="15.87" width="114.32" height="128.7"/><path class="cls-2" d="M91.84,108.34c-2.32,1.16-7.55,2.41-14.35,2.41-19.33,0-29.29-12-29.29-28,0-19.08,13.61-29.71,30.54-29.71,6.56,0,11.53,1.33,13.77,2.49l-2.57,10a27.3,27.3,0,0,0-10.62-2.08c-10,0-17.84,6.06-17.84,18.5,0,11.2,6.64,18.26,17.92,18.26a31.59,31.59,0,0,0,10.54-1.83Z"/><path class="cls-2" d="M39.14,187a9.18,9.18,0,0,1-3.66.61c-4.93,0-7.47-3.07-7.47-7.13,0-4.87,3.47-7.58,7.79-7.58a8.42,8.42,0,0,1,3.51.63l-0.66,2.56a7,7,0,0,0-2.71-.53c-2.56,0-4.55,1.54-4.55,4.72,0,2.86,1.69,4.66,4.57,4.66a8.06,8.06,0,0,0,2.69-.47Z"/><path class="cls-2" d="M46.5,183.78l-1,3.66H42.14l4.36-14.26h4.23l4.42,14.26H51.69l-1.1-3.66H46.5Zm3.62-2.41-0.89-3c-0.25-.85-0.51-1.9-0.72-2.75h0c-0.21.85-.42,1.93-0.66,2.75l-0.85,3h3.15Z"/><path class="cls-2" d="M58.78,173.37a28.4,28.4,0,0,1,4.3-.3c2.12,0,3.6.32,4.61,1.12a3.62,3.62,0,0,1,1.31,3,3.79,3.79,0,0,1-2.52,3.51v0.06a3.6,3.6,0,0,1,1.9,2.67c0.44,1.61.89,3.47,1.16,4h-3.3a17.86,17.86,0,0,1-1-3.32c-0.38-1.78-1-2.26-2.31-2.29H62v5.61h-3.2V173.37Zm3.2,6.14h1.27c1.61,0,2.56-.8,2.56-2.05s-0.89-2-2.37-2a8.09,8.09,0,0,0-1.46.11v3.94Z"/><path class="cls-2" d="M73,173.37a25.74,25.74,0,0,1,4.17-.3,7.89,7.89,0,0,1,4.21.8,3.11,3.11,0,0,1,1.71,2.79,3.22,3.22,0,0,1-2.35,3v0a3.57,3.57,0,0,1,2.84,3.51,3.8,3.8,0,0,1-1.48,3c-1,.83-2.77,1.29-5.61,1.29a25,25,0,0,1-3.49-.21v-14Zm3.2,5.46H77.3c1.69,0,2.6-.7,2.6-1.76s-0.83-1.65-2.29-1.65a8.84,8.84,0,0,0-1.38.08v3.32Zm0,6.33a10,10,0,0,0,1.25,0c1.46,0,2.75-.55,2.75-2.05s-1.29-2-2.9-2h-1.1v4Z"/><path class="cls-2" d="M100.6,180.16c0,4.68-2.84,7.51-7,7.51s-6.71-3.2-6.71-7.26c0-4.28,2.73-7.47,6.94-7.47C98.21,172.95,100.6,176.23,100.6,180.16Zm-10.31.19c0,2.79,1.31,4.76,3.47,4.76s3.43-2.07,3.43-4.85c0-2.56-1.23-4.76-3.45-4.76S90.29,177.58,90.29,180.35Z"/><path class="cls-2" d="M104.43,187.44V173.18h3.77l3,5.23a41.34,41.34,0,0,1,2.33,4.89h0.06a52.86,52.86,0,0,1-.28-5.95v-4.17h3v14.26h-3.39l-3-5.5a52.88,52.88,0,0,1-2.48-5l-0.06,0c0.08,1.88.13,3.89,0.13,6.22v4.3h-3Z"/></svg>