<svg id="Layer_1" data-name="Layer 1" xmlns="http://www.w3.org/2000/svg" xmlns:xlink="http://www.w3.org/1999/xlink" viewBox="0 0 146.72 205.23"><defs><style>.cls-1{stroke:#fff;stroke-miterlimit:10;stroke-width:3.11px;fill:url(#linear-gradient);}.cls-2{fill:#fff;}</style><linearGradient id="linear-gradient" x1="15.68" y1="80.22" x2="130" y2="80.22" gradientUnits="userSpaceOnUse"><stop offset="0.58" stop-color="#e68163"/><stop offset="1" stop-color="#e58066"/><stop offset="1" stop-color="#da728b"/></linearGradient></defs><title>square</title><rect class="cls-1" x="15.68" y="15.87" width="114.32" height="128.7"/><path class="cls-2" d="M61.9,51.14V72.53H82.63V51.14H95.18V106.8H82.63V83.51H61.9V106.8H49.27V51.14H61.9Z"/><path class="cls-2" d="M17.28,173.11v5.48h5.31v-5.48h3.22v14.26H22.59v-6H17.28v6H14V173.11h3.24Z"/><path class="cls-2" d="M33.26,187.37v-5.84l-4.51-8.42h3.68l1.46,3.43c0.44,1,.74,1.8,1.1,2.73h0c0.32-.89.66-1.71,1.08-2.73l1.44-3.43h3.62l-4.7,8.32v5.95H33.26Z"/><path class="cls-2" d="M44.05,173.3a28.8,28.8,0,0,1,4.36-.3c2.71,0,4.47.49,5.84,1.52a6.31,6.31,0,0,1,2.41,5.38,7.24,7.24,0,0,1-2.37,5.78c-1.5,1.25-3.79,1.84-6.58,1.84a28,28,0,0,1-3.66-.21v-14Zm3.24,11.64a5.94,5.94,0,0,0,1.12.06c2.92,0,4.83-1.59,4.83-5,0-3-1.71-4.53-4.49-4.53a6.71,6.71,0,0,0-1.46.13v9.33Z"/><path class="cls-2" d="M60.49,173.3a28.4,28.4,0,0,1,4.3-.3c2.12,0,3.6.32,4.61,1.12a3.62,3.62,0,0,1,1.31,3,3.79,3.79,0,0,1-2.52,3.51v0.06a3.6,3.6,0,0,1,1.9,2.67c0.44,1.61.89,3.47,1.16,4H68A17.86,17.86,0,0,1,67,184c-0.38-1.78-1-2.26-2.31-2.29h-1v5.61h-3.2V173.3Zm3.2,6.14H65c1.61,0,2.56-.8,2.56-2.05s-0.89-2-2.37-2a8.09,8.09,0,0,0-1.46.11v3.94Z"/><path class="cls-2" d="M87.73,180.09c0,4.68-2.84,7.51-7,7.51S74,184.41,74,180.34c0-4.28,2.73-7.47,6.94-7.47C85.34,172.87,87.73,176.15,87.73,180.09Zm-10.31.19c0,2.79,1.31,4.76,3.47,4.76s3.43-2.07,3.43-4.85c0-2.56-1.23-4.76-3.45-4.76S77.42,177.51,77.42,180.28Z"/><path class="cls-2" d="M103.48,186.71a16,16,0,0,1-4.76.8,8,8,0,0,1-5.8-1.93,6.9,6.9,0,0,1-2-5.19c0-4.74,3.47-7.45,8.15-7.45a9.82,9.82,0,0,1,4,.7l-0.68,2.58a7.9,7.9,0,0,0-3.32-.61c-2.69,0-4.72,1.52-4.72,4.61s1.84,4.68,4.49,4.68a4.32,4.32,0,0,0,1.59-.21v-3h-2.2V179.2h5.31v7.51Z"/><path class="cls-2" d="M116.19,181.34h-5.25v3.39h5.86v2.65h-9.1V173.11h8.8v2.65h-5.57v3h5.25v2.63Z"/><path class="cls-2" d="M120.72,187.37V173.11h3.77l3,5.23a41.41,41.41,0,0,1,2.33,4.89h0.06a52.86,52.86,0,0,1-.28-5.95v-4.17h3v14.26h-3.39l-3-5.5a52.88,52.88,0,0,1-2.48-5l-0.06,0c0.08,1.88.13,3.89,0.13,6.22v4.3h-3Z"/></svg>