<svg id="Layer_1" data-name="Layer 1" xmlns="http://www.w3.org/2000/svg" viewBox="0 0 146.72 205.23"><defs><style>.cls-1{fill:#e8cb4e;stroke:#fff;stroke-miterlimit:10;stroke-width:3.11px;}.cls-2{fill:#fff;}</style></defs><title>square</title><rect class="cls-1" x="16.2" y="15.79" width="114.32" height="128.7"/><path class="cls-2" d="M56.16,96.82a32.27,32.27,0,0,0,14,3.49c5.81,0,8.88-2.41,8.88-6.06,0-3.49-2.66-5.48-9.38-7.88C60.4,83.13,54.34,78,54.34,69.85c0-9.54,8-16.84,21.16-16.84a34.27,34.27,0,0,1,14.27,2.82L86.95,66a26.58,26.58,0,0,0-11.7-2.66c-5.48,0-8.13,2.49-8.13,5.39,0,3.57,3.15,5.15,10.37,7.88C87.36,80.31,92,85.45,92,93.33c0,9.38-7.22,17.34-22.57,17.34-6.39,0-12.7-1.66-15.85-3.4Z"/><path class="cls-2" d="M30,184.54a8.23,8.23,0,0,0,3.58.89c1.48,0,2.26-.61,2.26-1.54s-0.68-1.4-2.39-2c-2.37-.83-3.92-2.14-3.92-4.21,0-2.43,2-4.3,5.4-4.3a8.74,8.74,0,0,1,3.64.72l-0.72,2.6a6.79,6.79,0,0,0-3-.68c-1.4,0-2.07.63-2.07,1.38,0,0.91.8,1.31,2.65,2,2.52,0.93,3.7,2.24,3.7,4.25,0,2.39-1.84,4.42-5.76,4.42a9.34,9.34,0,0,1-4-.87Z"/><path class="cls-2" d="M46.27,173.6v8.21c0,2.46.93,3.7,2.58,3.7s2.62-1.18,2.62-3.7V173.6h3.22v8c0,4.4-2.22,6.5-5.95,6.5s-5.71-2-5.71-6.54v-8h3.24Z"/><path class="cls-2" d="M59.2,173.6h3.24v11.56h5.67v2.71H59.2V173.6Z"/><path class="cls-2" d="M71.73,173.6h8.72v2.65H75v3.26h5.12v2.62H75v5.74H71.73V173.6Z"/><path class="cls-2" d="M87.81,173.6v8.21c0,2.46.93,3.7,2.58,3.7s2.62-1.18,2.62-3.7V173.6h3.22v8c0,4.4-2.22,6.5-5.95,6.5s-5.71-2-5.71-6.54v-8h3.24Z"/><path class="cls-2" d="M100.74,173.79a28.4,28.4,0,0,1,4.3-.3c2.12,0,3.6.32,4.61,1.12a3.62,3.62,0,0,1,1.31,3,3.79,3.79,0,0,1-2.52,3.51v0.06a3.6,3.6,0,0,1,1.9,2.67c0.44,1.61.89,3.47,1.16,4h-3.3a17.86,17.86,0,0,1-1-3.32c-0.38-1.78-1-2.26-2.31-2.29h-1v5.61h-3.2V173.79Zm3.2,6.14h1.27c1.61,0,2.56-.8,2.56-2.05s-0.89-2-2.37-2a8.09,8.09,0,0,0-1.46.11v3.94Z"/></svg>