<svg id="Layer_1" data-name="Layer 1" xmlns="http://www.w3.org/2000/svg" xmlns:xlink="http://www.w3.org/1999/xlink" viewBox="0 0 277.37 804.52"><defs><style>.cls-1,.cls-3{stroke:#fff;stroke-miterlimit:10;}.cls-1{stroke-width:5px;fill:url(#linear-gradient);}.cls-2,.cls-3{fill:#fff;}.cls-3{stroke-width:0.76px;opacity:0.82;}.cls-4{fill:#e3846a;}</style><linearGradient id="linear-gradient" x1="45.92" y1="403.37" x2="229.53" y2="403.37" gradientUnits="userSpaceOnUse"><stop offset="0.58" stop-color="#e68163"/><stop offset="1" stop-color="#e58066"/><stop offset="1" stop-color="#da728b"/></linearGradient></defs><title>square</title><rect class="cls-1" x="45.92" y="300.02" width="183.61" height="206.7"/><path class="cls-2" d="M120.16,356.67V391h33.29V356.67h20.16v89.4H153.46V408.67H120.16v37.41H99.87v-89.4h20.29Z"/><path class="cls-2" d="M48.49,552.56v8.81H57v-8.81h5.17v22.91H57v-9.59H48.49v9.59h-5.2V552.56h5.2Z"/><path class="cls-2" d="M74.16,575.48V566.1l-7.24-13.53h5.92l2.35,5.51c0.71,1.67,1.19,2.89,1.77,4.39H77c0.51-1.43,1.05-2.75,1.73-4.39l2.31-5.51h5.81l-7.55,13.36v9.55H74.16Z"/><path class="cls-2" d="M91.49,552.87a46.3,46.3,0,0,1,7-.48c4.35,0,7.17.78,9.38,2.45,2.38,1.77,3.88,4.59,3.88,8.63,0,4.39-1.6,7.41-3.81,9.28-2.41,2-6.08,3-10.57,3a44.89,44.89,0,0,1-5.88-.34V552.87Zm5.2,18.7a9.53,9.53,0,0,0,1.8.1c4.69,0,7.75-2.55,7.75-8,0-4.76-2.75-7.27-7.21-7.27a10.81,10.81,0,0,0-2.35.2v15Z"/><path class="cls-2" d="M117.9,552.87a45.54,45.54,0,0,1,6.9-.48c3.4,0,5.78.51,7.41,1.8a5.82,5.82,0,0,1,2.11,4.79,6.08,6.08,0,0,1-4,5.64v0.1c1.6,0.65,2.48,2.18,3.06,4.28,0.71,2.58,1.43,5.58,1.87,6.46h-5.3a28.65,28.65,0,0,1-1.6-5.34c-0.61-2.86-1.6-3.64-3.71-3.67H123v9H117.9V552.87Zm5.13,9.86h2c2.58,0,4.11-1.29,4.11-3.3s-1.43-3.16-3.81-3.2a13,13,0,0,0-2.35.17v6.32Z"/><path class="cls-2" d="M161.65,563.78c0,7.51-4.56,12.07-11.25,12.07s-10.78-5.13-10.78-11.66c0-6.87,4.39-12,11.15-12C157.81,552.19,161.65,557.46,161.65,563.78Zm-16.56.31c0,4.49,2.11,7.65,5.58,7.65s5.51-3.33,5.51-7.79c0-4.11-2-7.65-5.54-7.65S145.1,559.64,145.1,564.09Z"/><path class="cls-2" d="M186.94,574.42a25.64,25.64,0,0,1-7.65,1.29c-4.18,0-7.21-1.05-9.31-3.09a11.09,11.09,0,0,1-3.23-8.33c0-7.62,5.58-12,13.09-12a15.78,15.78,0,0,1,6.36,1.12l-1.09,4.15a12.69,12.69,0,0,0-5.34-1c-4.32,0-7.58,2.45-7.58,7.41,0,4.73,3,7.51,7.21,7.51a6.94,6.94,0,0,0,2.55-.34V566.4h-3.54v-4h8.53v12.07Z"/><path class="cls-2" d="M207.37,565.79h-8.43v5.44h9.42v4.25H193.74V552.56h14.14v4.25h-8.94v4.76h8.43v4.22Z"/><path class="cls-2" d="M214.64,575.48V552.56h6.05l4.76,8.4a66.46,66.46,0,0,1,3.74,7.85h0.1a85.07,85.07,0,0,1-.44-9.55v-6.7h4.76v22.91h-5.44l-4.9-8.84a85,85,0,0,1-4-8.09l-0.1,0c0.14,3,.2,6.26.2,10v6.9h-4.76Z"/><circle class="cls-3" cx="136.2" cy="48.99" r="28.83"/><path class="cls-4" d="M133.58,41.7h-0.08l-5.17,2.46-1-4.76,7.18-3.34h5.26V63.2h-6.13V41.7Z"/></svg>